<?xml version="1.0" standalone="no"?>
<!DOCTYPE svg PUBLIC "-//W3C//DTD SVG 1.1//EN" "http://www.w3.org/Graphics/SVG/1.1/DTD/svg11.dtd" >
<svg xmlns="http://www.w3.org/2000/svg">
<metadata>
Created by FontForge 20120731 at Tue Feb 16 17:03:50 2016
 By Ads
</metadata>
<defs>
<font id="iconfont" horiz-adv-x="1024" >
  <font-face 
    font-family="iconfont"
    font-weight="500"
    font-stretch="normal"
    units-per-em="1024"
    panose-1="2 0 6 3 0 0 0 0 0 0"
    ascent="896"
    descent="-128"
    x-height="792"
    bbox="-0.05 -224 1232 896"
    underline-thickness="50"
    underline-position="-100"
    unicode-range="U+0078-E683"
  />
<missing-glyph horiz-adv-x="374" 
d="M34 0v682h272v-682h-272zM68 34h204v614h-204v-614z" />
    <glyph glyph-name=".notdef" horiz-adv-x="374" 
d="M34 0v682h272v-682h-272zM68 34h204v614h-204v-614z" />
    <glyph glyph-name=".null" horiz-adv-x="0" 
 />
    <glyph glyph-name="nonmarkingreturn" horiz-adv-x="341" 
 />
    <glyph glyph-name="x" unicode="x" horiz-adv-x="1001" 
d="M281 543q-27 -1 -53 -1h-83q-18 0 -36.5 -6t-32.5 -18.5t-23 -32t-9 -45.5v-76h912v41q0 16 -0.5 30t-0.5 18q0 13 -5 29t-17 29.5t-31.5 22.5t-49.5 9h-133v-97h-438v97zM955 310v-52q0 -23 0.5 -52t0.5 -58t-10.5 -47.5t-26 -30t-33 -16t-31.5 -4.5q-14 -1 -29.5 -0.5
t-29.5 0.5h-32l-45 128h-439l-44 -128h-29h-34q-20 0 -45 1q-25 0 -41 9.5t-25.5 23t-13.5 29.5t-4 30v167h911zM163 247q-12 0 -21 -8.5t-9 -21.5t9 -21.5t21 -8.5q13 0 22 8.5t9 21.5t-9 21.5t-22 8.5zM316 123q-8 -26 -14 -48q-5 -19 -10.5 -37t-7.5 -25t-3 -15t1 -14.5
t9.5 -10.5t21.5 -4h37h67h81h80h64h36q23 0 34 12t2 38q-5 13 -9.5 30.5t-9.5 34.5q-5 19 -11 39h-368zM336 498v228q0 11 2.5 23t10 21.5t20.5 15.5t34 6h188q31 0 51.5 -14.5t20.5 -52.5v-227h-327z" />
    <glyph glyph-name="uniE600" unicode="&#xe600;" 
d="M721 -157q-20 0 -44.5 6.5t-49.5 17.5t-46.5 22t-43.5 25q-108 67 -211 168h-1l-21 21q-101 104 -168 212q-18 30 -32.5 58.5t-26 63.5t-11.5 62q0 68 63 152q8 11 18 22t25.5 26.5t33.5 25.5t33 10q26 0 63 -38q15 -16 30 -35t28 -38q10 -13 19 -27t16.5 -27.5
t14.5 -25.5q14 -27 18.5 -42t4.5 -24q0 -29 -29 -49q-9 -6 -18.5 -10.5t-24.5 -11.5q-26 -11 -32 -16q1 -5 4.5 -13t12 -22.5t19.5 -31.5q18 -26 39.5 -52.5t41.5 -47.5q45 -44 100 -81q46 -32 68 -37q5 6 16 32q13 31 22 43q20 30 48 30q22 0 66 -24q19 -9 39.5 -22
t41.5 -27q8 -6 16.5 -12.5t18 -14t19.5 -16t18 -16.5q38 -36 38 -62q0 -16 -9.5 -33.5t-25 -33.5t-27 -26t-21.5 -18q-84 -63 -153 -63v0zM362 119q100 -97 203 -160q49 -30 89.5 -46.5t66.5 -16.5q50 0 118 51q30 21 49 43q14 16 17 26q-5 9 -28.5 31t-64.5 51
q-18 12 -36.5 23.5t-34.5 19.5q-28 15 -40 17q-4 -2 -8.5 -10.5t-14.5 -30.5q-11 -26 -18 -37q-18 -27 -43 -27h-1q-33 1 -99 46q-59 40 -108 87v1q-47 48 -87 107q-16 23 -26.5 42t-14 30.5t-4.5 16.5t-1 10q-1 26 26 44q4 2 8.5 4.5t10 5.5t9.5 5l10 4q22 9 30 14
q3 2 5.5 4t3.5 3l1 1q-1 12 -16 41q-9 16 -20 34t-24 36q-28 42 -50 65.5t-32 27.5q-1 0 -3.5 -1.5t-5.5 -3t-7.5 -5t-8.5 -7.5q-11 -9 -22 -21.5t-22 -26.5q-16 -21 -27 -42.5t-17 -41t-6 -34.5q0 -55 62 -156q64 -104 161 -203zM362 119z" />
    <glyph glyph-name="uniE601" unicode="&#xe601;" 
d="M228 -153l55 -55l509 508l-509 509l-55 -55l454 -454zM228 -153z" />
    <glyph glyph-name="uniE602" unicode="&#xe602;" 
d="M260 -136l-251 436l251 436h504l251 -436l-251 -436h-504z" />
    <glyph glyph-name="uniE603" unicode="&#xe603;" 
d="M510 -161q-8 8 -21.5 22t-52.5 56.5t-75 84t-79.5 98.5t-75 107t-53 102t-21.5 90q0 92 50.5 169t138 122t189.5 45q77 0 147 -26.5t121 -71.5t80.5 -107t29.5 -131q0 -52 -40.5 -130.5t-90.5 -145.5t-115 -141.5t-91 -101t-41 -41.5zM510 686q-87 0 -161.5 -37.5
t-117.5 -102t-43 -141.5q0 -43 35 -111t77.5 -127.5t98 -125.5t77 -90t34.5 -37q13 13 35 37t77.5 90.5t98 125t77 127t34.5 111.5q0 39 -11.5 75t-32 67t-50.5 56.5t-65 43.5t-77 28.5t-86 10.5zM510 287q-42 0 -77.5 18.5t-56 50t-20.5 68.5t20.5 68.5t56 50t77.5 18.5
q64 0 109 -40t45 -97t-45 -97t-109 -40zM510 511q-40 0 -68.5 -25.5t-28.5 -61.5t28.5 -61.5t68.5 -25.5q27 0 49.5 12t35.5 32t13 43q0 14 -5 27.5t-14 24t-21 18.5t-27 12.5t-31 4.5z" />
    <glyph glyph-name="uniE604" unicode="&#xe604;" 
d="M120 620h373q7 0 12 2.5t7.5 6t4 8t0 9.5t-4 9t-7.5 6t-12 2h-46q-329 1 -342 0q-13 0 -20.5 -5t-7.5 -19v-112v-229v-228v-115q0 -5 0.5 -9.5t2 -7.5t4 -5.5t6 -3.5t7.5 -2t9 -1h728q26 0 26 28v279q0 16 -11 22t-22 0t-11 -22v-263h-696v650zM498 232q0 -13 9 -18.5
t18.5 -3t11.5 10.5q1 1 2 5q3 16 6 29.5t15 44t27 54.5t42.5 52.5t61.5 46t84.5 27.5t109.5 5q-93 -115 -109 -135q-7 -9 -1.5 -20t16 -13t19.5 6q7 8 39.5 48.5t61.5 76.5l29 37q16 13 -1 33q-117 136 -131 151q-7 8 -18 4.5t-15.5 -13t1.5 -18.5q5 -5 16.5 -18.5t24.5 -29
t26 -30t21 -24.5l9 -10q-224 9 -325 -157q-44 -71 -50 -137v-4zM847 328z" />
    <glyph glyph-name="uniE605" unicode="&#xe605;" 
d="M249 266l479 -480q7 -6 16.5 -8.5t18.5 0t16 8.5q10 11 10 25.5t-10 25.5l-456 456l448 448q11 10 11 24.5t-10.5 24.5t-24.5 10t-25 -10l-465 -466q-1 0 -4 -6l-2 -1l-2 -1q-10 -10 -10 -25t10 -25z" />
    <glyph glyph-name="uniE606" unicode="&#xe606;" 
d="M877 637h-730q-8 0 -13.5 5.5t-5.5 13.5q0 6 2.5 10.5t7 7t9.5 2.5h730q3 0 6 -1t5 -3t4 -4.5t3 -5.5t1 -6q0 -5 -2.5 -9.5t-7 -7t-9.5 -2.5zM512 -76q-8 0 -13 5.5t-5 12.5v639l-317 -317q-3 -2 -6.5 -3.5t-6.5 -1.5t-6.5 1.5t-6 4t-4 6t-1.5 7t1.5 6.5t3.5 6l348 348
q9 9 20 4q3 -1 5.5 -4t4 -6t1.5 -7v-683q0 -2 -0.5 -4.5t-2 -4.5t-3 -3.5t-3.5 -2.5t-4.5 -2t-4.5 -1zM859.5 259q-7.5 0 -12.5 5l-348 348q-3 4 -4.5 8.5t0 9t4.5 8.5q5 5 12.5 5t13.5 -5l348 -348q3 -4 4.5 -8.5t0 -9t-4.5 -8.5q-6 -5 -13.5 -5z" />
    <glyph glyph-name="uniE607" unicode="&#xe607;" 
d="M512 716q-172 0 -294 -122t-122 -294t122 -294t294 -122t294 122t122 294t-122 294t-294 122zM494 107l-206 193h69l137 -125l205 253h69z" />
    <glyph glyph-name="uniE608" unicode="&#xe608;" 
d="M512 775q-67 0 -131 -17.5t-118 -49.5t-99.5 -77.5t-77.5 -99.5t-49.5 -118t-17.5 -131q0 -100 39 -191.5t105 -157.5t157.5 -105t191.5 -39q80 0 155.5 25t136 70.5t106 106t70.5 136t25 155.5q0 40 -6.5 79.5t-18.5 76t-30 71t-40 64.5t-49.5 57.5t-57.5 49.5t-64.5 40
t-71 30t-76 18.5t-79.5 6.5zM512 -157q-89 0 -170.5 35t-140 93.5t-93.5 140t-35 170.5t35 170.5t93.5 140t140 93.5t170.5 35t170.5 -34.5t140 -93.5t93.5 -140.5t35 -170.5q0 -36 -5.5 -71t-16.5 -67.5t-27 -63t-36 -57.5t-44 -51t-51 -44t-57.5 -36t-63 -26.5
t-67.5 -16.5t-71 -6zM523 603h-54v-375h4l316 -128l20 50l-286 117v336z" />
    <glyph glyph-name="uniE609" unicode="&#xe609;" horiz-adv-x="1000" 
d="M140 544h70q6 0 11.5 3t8.5 8t3 11t-3 11.5t-8.5 8.5t-11.5 3h-70q-10 0 -16.5 -6.5t-6.5 -16t6.5 -16t16.5 -6.5zM140 253h70q10 0 16.5 6.5t6.5 15.5t-6.5 15.5t-16.5 6.5h-70q-4 0 -7.5 -1t-6.5 -3t-5 -4.5t-3 -6t-1 -7.5q0 -9 6.5 -15.5t16.5 -6.5zM233 -16.5
q0 9.5 -6.5 16t-16.5 6.5h-71q-9 0 -15.5 -6.5t-6.5 -16t6.5 -16t15.5 -6.5h71q10 0 16.5 6.5t6.5 16zM303 544h634q5 0 9 1.5t7 4.5t5 7.5t2 8.5q0 6 -3 11.5t-8.5 8.5t-11.5 3h-634q-3 0 -6 -1t-5.5 -2.5t-4.5 -3.5t-3.5 -4.5t-2 -5.5t-0.5 -6q0 -2 0.5 -4.5t1.5 -5
t2.5 -4.5t3.5 -3.5t4 -2.5t5 -1.5t5 -0.5zM303 252h634q9 0 16 7t7 16q0 6 -3 11t-8.5 8t-11.5 3h-634q-6 0 -11 -3t-8 -8t-3 -11q0 -3 0.5 -5.5t1.5 -4.5t2.5 -4t3.5 -3.5t4 -2.5t5 -2t5 -1zM958 -16.5q0 9.5 -6.5 16t-15.5 6.5h-634q-6 0 -11.5 -3t-8.5 -8t-3 -11
q0 -10 6.5 -16.5t16.5 -6.5h634q9 0 15.5 6.5t6.5 16z" />
    <glyph glyph-name="uniE60A" unicode="&#xe60a;" 
d="M686 165q-80 73 -172 76t-167 -72q-5 -5 -15 -4.5t-15 6.5q-11 12 -1 25q50 62 119.5 84t141.5 0t128 -84q5 -5 5 -12.5t-4 -12.5t-20 -6zM820 265q-1 0 -4 -1q-6 -1 -8.5 -1t-5.5 2q-122 125 -292 125q-58 0 -107.5 -11.5t-95.5 -38.5t-82 -69q-4 -5 -16 -5.5t-16.5 4.5
t-4.5 12t4 13q58 72 141.5 108.5t176.5 36.5q91 -1 174 -38.5t146 -106.5q11 -13 1 -25q-3 -2 -5.5 -3.5t-5.5 -1.5zM944 389q-19 0 -25 5q-122 112 -271 152t-292.5 1t-250.5 -151q-4 -5 -18 -5.5t-19 4.5q-11 12 0 24q84 95 199.5 145t235 50t239.5 -50t212 -146
q12 -11 1 -23q-4 -5 -11 -6zM512 116q-31 0 -53 -22t-22 -53t22 -53t53 -22t53 22t22 53q0 21 -10.5 38t-27.5 27t-37 10zM511 66q11 0 18 -7.5t7 -17.5t-7 -17.5t-17.5 -7.5t-18 7.5t-7.5 17.5q0 7 3.5 12.5t9.5 9t12 3.5z" />
    <glyph glyph-name="uniE60B" unicode="&#xe60b;" 
d="M903 568h-170v41q0 21 -15 36t-36 15h-341q-21 0 -36 -15t-15 -36v-41h-171q-20 0 -35 -15t-15 -36v-526q0 -21 15 -35.5t35 -14.5h784q21 0 36 14.5t15 35.5v526q0 11 -4 20t-11 16t-16 11t-20 4zM917 4q0 -11 -7.5 -18.5t-18.5 -7.5h-759q-11 0 -18.5 7.5t-7.5 18.5
v500q0 11 7.5 18.5t18.5 7.5h136v1h59v67q0 5 2 9.5t5.5 8t8 5.5t9.5 2h319q10 0 17.5 -7.5t7.5 -17.5v-67h104v-1h91q4 0 8 -1.5t7 -4t5.5 -5.5t4 -7t1.5 -8v-500zM511.5 438q-69.5 0 -117.5 -47.5t-48 -116.5t48 -118.5t117 -49.5t117.5 49.5t48.5 118.5t-48 116.5
t-117.5 47.5zM511 143q-35 0 -65 18t-47 48.5t-17 65.5q0 53 38 90t91 37q35 0 64.5 -17t47 -46t17.5 -64q0 -15 -3.5 -29.5t-10 -27.5t-15 -24.5t-20 -20.5t-24 -16t-27 -10.5t-29.5 -3.5z" />
    <glyph glyph-name="uniE60C" unicode="&#xe60c;" 
d="M920 -75h-18v14l-168 126l-224 -168l-224 84l-167 -104v-7h-12l-44 -28v55v560v56l223 139l224 -83l224 167l223 -167v-672zM902 555l-168 125l-224 -167l-224 84l-167 -105v-560l167 105l224 -84l224 168l168 -126v560zM734 485q0 11 8 19.5t20 8.5q4 0 8.5 -1.5t8 -4
t6 -6t4 -8t1.5 -8.5v-224q0 -12 -8.5 -20t-20 -8t-19.5 8t-8 20v224zM538 149q-12 0 -20 8.5t-8 19.5v168q0 11 8 19.5t20 8.5t20 -8.5t8 -19.5v-168q0 -11 -8 -19.5t-20 -8.5zM314 121q-2 0 -4.5 0.5t-5 1.5t-4.5 2t-4 2.5t-3.5 3.5t-2.5 4t-2 4.5t-1.5 5t-0.5 4.5v280
q0 11 8.5 19.5t20 8.5t19.5 -8.5t8 -19.5v-280q0 -11 -8 -19.5t-20 -8.5z" />
    <glyph glyph-name="uniE60D" unicode="&#xe60d;" 
d="M121 665v-147q58 105 162.5 168t228.5 63q91 0 174 -35.5t143 -95.5t95 -142.5t35 -173.5t-35 -174t-95 -142.5t-143 -95t-174 -35.5q-112 0 -209 51.5t-159 141t-75 198.5h56q21 -143 130.5 -239t256.5 -96q106 0 196.5 52t142.5 142.5t52 196.5t-52 196t-142.5 142.5
t-196.5 52.5q-115 0 -210.5 -61.5t-142.5 -162.5h157q6 0 11 -2t9 -5.5t6 -9t2 -11.5q0 -11 -8 -19t-20 -8h-179h-44h-14q1 0 1 1v2q-2 1 -4.5 3t-4.5 4q-2 3 -3 5t-1 3q-2 5 -2 9v224q0 12 8 20t20 8q21 0 26 -20zM497 150l-7 -11q-8 -8 -20 -8t-19 9l-156 146
q-5 5 -7 12.5t0 14.5t8 12q8 8 20 7.5t20 -8.5l128 -120l234 253q6 10 17 13t21 -2q7 -4 11 -10.5t3.5 -14t-3.5 -14.5zM65 442h28v-28h-28v28z" />
    <glyph glyph-name="uniE60E" unicode="&#xe60e;" 
d="M850 403l-71 230h-205v52h-128v-52h-205l-71 -230h-108v-51h51v-462h179v77h436v-77h179v462h51v51h-108zM292 582h436l77 -230h-590zM856 -58h-77v76h-538v-76h-77v358h692v-358zM343 121h-102v102h102v-102zM779 121h-102v102h102v-102zM241 223h102v-102h-102v102z
M677 223h102v-102h-102v102z" />
    <glyph glyph-name="uniE60F" unicode="&#xe60f;" 
d="M960 106v28q-48 35 -68 98q-11 33 -11 70t11 70q20 63 67 98v16v16v24v26v22v27v24v26h-896v-57h1q-1 -35 -1 -93v-17v-15q43 -32 64 -86q7 -19 11 -40t4 -43q0 -44 -15 -83q-21 -54 -64 -86v-1v-25q0 -80 1 -111h-1v-39h897v45h-1q0 47 1 106zM892 45h-254v60h-65v-60
h-131v60h-60v-60h-255v80q20 12 37 30.5t29 41.5t19 50t7 56q0 57 -25.5 105t-66.5 73v84h765v-88q-39 -25 -62.5 -71.5t-23.5 -101.5q0 -22 4 -43.5t11.5 -40.5t18 -35.5t24 -30.5t28.5 -24v-85zM382 280h60v-123h-60v123zM382 454h60v-124h-60v124zM382 565h60v-55h-60v55
zM573 454h65v-124h-65v124zM573 565h65v-55h-65v55zM573 280h65v-123h-65v123z" />
    <glyph glyph-name="uniE610" unicode="&#xe610;" 
d="M971 708v58h-891v-58h55v-578v-44q4 -12 24 -14h255l-112 -202h84l111 202h56l111 -202h84l-111 202h258q3 1 5 1t4 1t3.5 2t3 3t2 3.5l1.5 4.5v6q1 3 1 7v59v549h56zM856 130h-24h-613h-11h-9h-5q-1 0 -2 1v2q-1 1 -1 3v4v4v7v8v18v47v70v82v88v86v75v55v29h669v-163
v-263q0 -126 0 -124v-13q0 -15 -4 -16zM720 419q0 -8 -3.5 -14.5t-10 -10.5t-14.5 -4h-334q-11 0 -19.5 8.5t-8.5 20.5t8.5 20.5t19.5 8.5h334q8 0 14.5 -4t10 -10.5t3.5 -14.5zM159 72h-24v14q2 -7 7.5 -10t16.5 -4zM219 130h-25h25zM856 130h-24h24zM915 100v-28h-20
q3 1 5 1t4 1t3.5 2t3 3t2 3.5l1.5 4.5v6q1 3 1 7zM720 593q0 -8 -3.5 -15t-10 -10.5t-14.5 -3.5h-334q-7 0 -13.5 3.5t-10.5 10.5t-4 15q0 12 8.5 20.5t19.5 8.5h334q12 0 20 -8.5t8 -20.5zM637 246q0 -4 -1 -8t-3 -7t-4.5 -5.5t-5.5 -4.5t-6.5 -3t-7.5 -1h-251q-4 0 -7.5 1
t-6.5 3t-5.5 4.5t-4.5 5.5t-3 7t-1 8q0 12 8.5 20.5t19.5 8.5h251q7 0 13.5 -4t10.5 -10.5t4 -14.5z" />
    <glyph glyph-name="uniE611" unicode="&#xe611;" 
d="M974 282v-380q0 -14 -8.5 -24t-19.5 -10h-838q-12 0 -20 10t-8 24v380q0 10 3.5 18t10 12.5t14 4.5t14 -4.5t10 -12.5t3.5 -18v-345h783v345q0 15 8 25t19.5 10t20 -10t8.5 -25zM834 766h-615q-11 0 -21.5 -5.5t-18 -14.5t-12 -22t-4.5 -27v-622q0 -19 7.5 -35t20.5 -25
t28 -9h615q23 0 39.5 20t16.5 49v622q0 11 -3 21.5t-8 19t-12 15t-15.5 10t-17.5 3.5zM778 75h-503q-23 0 -39.5 20t-16.5 49h615q0 -19 -7.5 -35t-20.5 -25t-28 -9zM834 213h-615v415q0 29 16.5 49t39.5 20h503q23 0 39.5 -20t16.5 -49v-415z" />
    <glyph glyph-name="uniE612" unicode="&#xe612;" horiz-adv-x="1000" 
d="M517 633q36 -64 98 -175q18 -31 53 -37q10 -2 28 -5.5t65 -12t84 -15.5q-60 -68 -131 -145q-11 -12 -16.5 -28.5t-2.5 -33.5q11 -81 21 -167q-64 32 -161 79l-5 2q-15 8 -33 8q-17 0 -33 -7l-1 -1q-88 -42 -168 -80q4 35 9.5 78t8.5 63.5t4 25.5q5 36 -20 62
q-58 62 -132 144q24 4 51 9t49 9t40.5 7.5t28.5 5.5l11 2q16 3 30 13t22 24l3 6t9 16t13.5 23t16.5 29t18.5 32t20 34.5t19.5 34.5zM517 754q-20 0 -43 -43l-123 -215q-139 -26 -228 -42q-32 -5 -42.5 -28t6.5 -42q28 -32 71.5 -80t73.5 -80l29 -31q-18 -131 -28 -221
q-3 -25 9 -39.5t33 -14.5q13 0 28 7q64 31 214 102q145 -71 212 -103q14 -7 28 -7q20 0 31.5 14.5t9.5 39.5q-4 40 -11 95t-12 91l-5 35q110 119 172 191q10 14 10 28.5t-12.5 26.5t-33.5 16l-224 42q-9 15 -22.5 39t-46 81.5t-53.5 94.5t-38 42q-2 1 -5 1z" />
    <glyph glyph-name="uniE613" unicode="&#xe613;" 
d="M854 45q-36 56 -89 98t-117 64l-4 2l-6 2q-2 1 -4.5 1.5t-5 1.5t-5.5 1q40 19 71 51q37 36 56.5 83t19.5 98q0 35 -9 67.5t-25.5 61.5t-41.5 53q-36 37 -83 56t-98.5 19t-98.5 -19t-83 -56q-75 -75 -75 -181.5t75 -181.5q31 -31 70 -50q-13 -4 -26 -9q-32 -11 -61.5 -27
t-55.5 -38q-53 -41 -89 -98q-37 -57 -54 -124l40 -9q30 121 128 199q48 38 106 59q59 21 122.5 21t122.5 -21q58 -20 106 -58q31 -26 56.5 -57t43.5 -67.5t28 -75.5l40 10q-17 66 -54 124zM297 447q0 90 63 153t152.5 63t153 -63t63.5 -152.5t-63.5 -153t-152.5 -63.5
q-22 0 -43.5 4.5t-41 12.5t-37 20t-32 26.5t-26 32t-20 37t-12.5 40.5t-4 43z" />
    <glyph glyph-name="uniE614" unicode="&#xe614;" 
d="M944 320l-165 -142q-16 -16 -12 -39l38 -227q5 -27 -14 -41q-13 -10 -29 -10q-11 0 -22 6l-208 112q-10 5 -21 5t-20 -5l-200 -112q-12 -6 -25.5 -5t-24.5 9q-28 19 -24 41l48 232q2 11 -1.5 21.5t-11.5 17.5l-174 137q-21 21 -12 49q4 13 14.5 22t24.5 11l226 39
q11 2 19.5 8.5t13.5 16.5l104 219q13 27 43 27t43 -27l100 -219q11 -21 34 -25l230 -39q9 -2 16.5 -6t13.5 -11t8 -16q3 -9 2.5 -17.5t-4 -17t-10.5 -14.5z" />
    <glyph glyph-name="uniE615" unicode="&#xe615;" 
d="M511.5 67q-38.5 0 -64.5 26l-371 371q-12 12 -12 28.5t12 28.5t28.5 12t28.5 -12l371 -371q8 -7 15 1l371 370q12 12 28.5 12t28.5 -12t12 -28.5t-12 -28.5l-371 -371q-26 -26 -64.5 -26z" />
    <glyph glyph-name="uniE616" unicode="&#xe616;" 
d="M951 380q-15 23 -39 36t-52 14h-5l-208 1q3 8 5.5 16.5t5 17.5t4 17.5t3 17.5t2.5 18t1.5 18.5t0.5 18.5q0 42 -10 83q-4 17 -14 32t-24 25.5t-31.5 17t-36.5 6.5q-30 0 -55 -14t-39.5 -38.5t-14.5 -52.5v-4q0 -1 0.5 -3t0.5 -3q-3 -83 -62.5 -143t-145.5 -66v-1h-124h-4
q-16 0 -27 -10.5t-11 -25.5v-432q0 -10 5 -18.5t13.5 -13t18.5 -4.5h6h138h2h4h5h519q32 0 59 16q26 16 40 43l3 5l2 6l80 343q2 6 2 12q1 17 -3 33.5t-14 31.5zM146 322h75l-1 -360h-74v360zM892 313l-78 -331q-4 -10 -13 -15q-7 -4 -14 -5h-5h-487v369q74 18 130 68.5
t80 120.5q6 17 9 33q3 13 4 27.5t1 22.5v7h1v2v1q0 14 10 23.5t24.5 9.5t24.5 -9.5t10 -23.5v-1v-1h1q5 -27 5 -56q0 -17 -1 -31t-2 -20l-2 -6q-9 -46 -32 -87q-3 -8 -3 -16q0 -15 10.5 -25.5t26.5 -10.5l263 -1h1q21 1 32 -16q9 -14 4 -29z" />
    <glyph glyph-name="uniE617" unicode="&#xe617;" 
d="M172 669h677v-54h-677v54zM172 642h54v-244h-54v244zM795 642h54v-217h-54v217zM64 425h217v-54h-217v54zM64 398h54v-459h-54v459zM64 -34h893v-55h-893v55zM903 425h54v-459h-54v459zM713 425h190v-54h-190v54zM713 425h55v-351h-55v351zM226 398h55v-324h-55v324z
M226 128h514v-54h-514v54z" />
    <glyph glyph-name="uniE618" unicode="&#xe618;" 
d="M408 212q-3 6 -9 15.5t-20 38.5t-24.5 57t-17 65.5t-3.5 69t22 61.5t54 50q77 42 153 47t137 -22.5t107 -84.5t69 -133.5t18 -175t-42 -203.5q-43 -121 -145 -143q-83 -17 -160 36q-74 53 -80 132q-1 15 0 28q2 36 2 53.5t-7.5 32.5t-14.5 22t-18.5 22t-20.5 32zM806 34
q-40 -106 -123 -125q-66 -16 -118 27q-45 36 -41 89q2 54 2 82t-8 49t-14.5 28.5t-18 20.5t-18.5 27q-3 4 -8 11.5t-17.5 30.5t-22 45.5t-17.5 52t-8 54.5t10.5 50t33.5 41q130 89 244 27q93 -51 135 -178q50 -154 -6 -317q-2 -8 -5 -15zM789 620q-82 50 -175 62t-164 -15
l8 64q210 48 339 -60zM278.5 691q44.5 -15 64 -54t3 -79t-59.5 -58t-87 -3t-64 54t-3.5 79t59.5 58t87.5 3zM795 668q12 -1 19 -9.5t5.5 -19.5t-10.5 -17.5t-21 -5t-19 10t-5.5 19t10.5 17t21 5.5zM458 731q8 -1 14 -5.5t9 -10.5t2 -13q-1 -11 -10.5 -17.5t-21 -5.5t-19 9.5
t-6 19.5t10.5 17.5t21 5.5zM258 642.5q22 -7.5 32 -27t2 -39t-29.5 -28.5t-43.5 -2q-11 4 -19 11t-12.5 16t-5.5 19t4 20q8 20 29 29t43 1.5z" />
    <glyph glyph-name="uniE619" unicode="&#xe619;" 
d="M707 689h-525q-7 0 -13.5 -3.5t-10 -10t-3.5 -13.5v-727q0 -12 8 -20t19 -8h663q12 0 20 8t8 20v587h55v-643q0 -8 -3.5 -14t-10 -10t-14.5 -4h-773q-5 0 -10.5 2.5t-9 6t-5.5 8.5t-2 11v838q0 12 8 20t19 8h580v-56zM928 466h-249q-11 0 -19 8t-8 20v223h55v-167
q0 -12 8 -20t20 -8h193v-56zM293 186h442q5 0 10.5 -2t9 -5.5t5.5 -9t2 -11.5q0 -11 -8 -19t-19 -8h-442q-12 0 -20 8t-8 19.5t8 19.5t20 8zM293 47h442q11 0 19 -8.5t8 -19.5q0 -8 -3.5 -14.5t-10 -10t-13.5 -3.5h-442q-12 0 -20 8t-8 19.5t8 20t20 8.5zM376 606
q57 0 97.5 -41t40.5 -99t-40.5 -99t-98 -41t-97.5 41t-40 99q0 28 10.5 54t29 45t44.5 30t54 11zM376 550q34 0 58.5 -24.5t24.5 -59.5t-24.5 -59.5t-59 -24.5t-58.5 24.5t-24 59.5q0 23 11 42t30 30.5t42 11.5z" />
    <glyph glyph-name="uniE61A" unicode="&#xe61a;" 
d="M410 569q-120 -66 -54 -250q22 -60 52 -107q8 -15 17.5 -27.5t16 -19.5t13.5 -17.5t9.5 -21t4.5 -30.5t-2 -46q-5 -43 15.5 -84t55 -68.5t80 -39.5t89 -4.5t83.5 44.5t62 99q79 224 16 402q-48 136 -160 190q-132 64 -286 -14q-7 -3 -12 -6zM806 34q-40 -106 -123 -125
q-66 -16 -118 27q-45 36 -41 89q2 54 2 82t-8 49t-14.5 28.5t-18 20.5t-18.5 27q-3 4 -8 11.5t-17.5 30.5t-22 45.5t-17.5 52t-8 54.5t10.5 50t33.5 41q130 89 244 27q93 -51 135 -178q50 -154 -6 -317q-2 -8 -5 -15zM819.5 639q-0.5 -4 -2.5 -8t-5 -6.5t-6.5 -4.5t-8 -3
t-9.5 -1q-18 2 -24 18q-77 41 -162.5 49.5t-151.5 -16.5l1 12q-11 1 -18.5 9.5t-6 19.5t10.5 17.5t21 5.5q210 48 339 -60q-1 0 -1 -3q4 -1 8 -2.5t7 -4.5t5.5 -6.5t3 -7.5t0 -8zM278 691q-30 9 -59 5t-53 -21.5t-34 -44.5q-17 -40 3 -79t64 -54t87 3t60 58q5 12 6.5 23.5
t0 23t-5.5 22.5t-10.5 20.5t-15 18t-19.5 15t-24 10.5zM292 576.5q-8 -19.5 -29.5 -28.5t-43.5 -1.5t-32 26.5t-1.5 39t29.5 29t43 1.5t32 -27t2 -39z" />
    <glyph glyph-name="uniE61B" unicode="&#xe61b;" 
d="M950 532l-2 4q-1 5 -4 12.5t-6.5 12t-5 7t-4.5 7t-6.5 8.5t-7.5 9q-11 12 -31 30q-10 10 -47 34q-27 16 -46 23q-36 13 -76 13h-410q-3 0 -15 -2t-25.5 -4t-25.5 -4.5t-16 -4.5l-7 -3q-7 -2 -13.5 -5t-15.5 -7.5t-19.5 -12.5t-20.5 -15.5t-13 -9.5q-8 -5 -30 -32
q-10 -11 -22 -31q-3 -5 -6.5 -14t-5.5 -14q0 -1 -1 -5.5t-1.5 -7t-1.5 -6t-1.5 -6.5t-0.5 -5v-183h17h26h17q0 -4 8 -14q21 -27 29 -33q12 -9 20 -11q10 -3 27 -3q8 0 30 3l3 2q3 1 7.5 3.5t7.5 5.5l7 7l8 12q5 5 8 10l4 4l8 14q8 1 20 1t13 -1t4 -6t4 -7q19 -27 29 -36
q8 -6 21 -11q5 -2 12 -1.5t18 0.5q22 0 27 3q5 2 9 4.5t7 4.5l2 2q3 3 14.5 17.5t11.5 15.5q3 5 10 11q3 1 9 1.5t12 0t10 -1.5q2 -1 4.5 -2.5t4 -3t2.5 -4.5q1 0 6 -7l10 -12q5 -7 7 -9q1 0 5 -4l6 -7q3 -2 8 -4.5t9 -3.5q8 -1 27 -1q24 0 30 3q3 1 18 17q2 2 6 7t7.5 10
t5.5 7q1 1 3.5 4t4.5 6t4 4q3 1 16.5 1t17.5 -1q2 -1 4.5 -4t4.5 -7l2 -3q1 -1 9.5 -10.5t8.5 -10.5q1 -1 6 -5.5t12.5 -9.5t12.5 -7q4 -1 24 -1q5 -1 14.5 -0.5t13.5 1.5q14 6 26 19q2 2 5 6t6 9t5 7l13 19h61q0 34 1 92t1 91q0 25 -5 29zM890 393v-3q0 -3 -1 -6t-3 -4
l-19 -2h-684q-3 0 -13 -0.5t-15.5 -0.5t-12 1.5t-8.5 4.5q-4 1 -8 6q-1 4 0 99v0q-3 26 22 58q15 18 23.5 27.5t18 16.5t25.5 15q8 5 15 8.5t12.5 5.5t8.5 3.5t7.5 3t7.5 1.5q3 1 8.5 2t11.5 1.5t11.5 1t9.5 0.5h3h388q8 0 16.5 -0.5t15.5 -1t14 -1.5q26 -4 63 -24
q12 -7 36 -28t32 -32q15 -20 15 -59q0 -6 -0.5 -16.5t-0.5 -19t1 -16.5v-10v-20v-11zM897 431zM897 431zM896 386zM957 -55v-57h-891v57h32h30h3t8 1t8.5 2t5.5 5t2 7v3v64v56v56v33q1 22 17 27q10 3 25 0.5t15 -28.5v-8v-7q0 -4 0.5 -9t0.5 -10v-131q0 -2 -1 -21.5t0 -20.5
q2 -12 8 -16q5 -3 24 -3h401h140h4q3 0 8.5 1.5t8.5 4.5q3 2 4.5 4.5t2.5 5t1.5 4t0.5 3.5v96v104q0 15 2.5 22.5t4.5 8t5 1.5q4 0 14.5 0.5t12.5 -0.5q4 0 5.5 -0.5t4.5 -7.5t3 -21v-101v-101q0 -17 8 -21q2 -1 5 -2h4q3 -1 5 -1h3h2h63zM148 546z" />
    <glyph glyph-name="uniE61C" unicode="&#xe61c;" 
d="M157 718q0 9 8 13.5t16 -0.5l674 -423q8 -5 8 -13q-1 -8 -8 -13l-674 -423q-4 -2 -8 -2t-8 2q-2 1 -4 3t-3 4.5t-1 5.5v846z" />
    <glyph glyph-name="uniE61D" unicode="&#xe61d;" 
d="M166 707h199v-837h-199v837zM664 707h199v-837h-199v837z" />
    <glyph glyph-name="uniE61E" unicode="&#xe61e;" 
d="M512 587q-78 0 -144.5 -38.5t-105 -105t-38.5 -144.5q0 -119 84.5 -203.5t203.5 -84.5t203.5 84.5t84.5 203.5t-84.5 203.5t-203.5 84.5zM512 71q-94 0 -161 67t-67 161t67 161t161 67q62 0 114.5 -30.5t83 -83t30.5 -114.5q0 -94 -67 -161t-161 -67zM512 642
q6 0 11.5 2.5t9.5 6.5t6.5 9.5t2.5 11.5v103q0 6 -2.5 11.5t-6.5 9.5t-9.5 6.5t-11.5 2.5q-12 0 -21 -9t-9 -21v-103q0 -12 9 -21t21 -9zM512 -44q-12 0 -21 -9t-9 -22v-102q0 -12 9 -21t21 -9q8 0 15 4t11 11t4 15v102q0 13 -9 22t-21 9zM988 329h-103q-12 0 -21 -9
t-9 -21.5t9 -21t21 -8.5h103q12 0 21 8.5t9 21t-9 21.5t-21 9zM169 299q0 12 -9 21t-21 9h-103q-12 0 -21 -9t-9 -21q0 -6 2.5 -11.5t6.5 -9.5t9.5 -6.5t11.5 -2.5h103q4 0 9 1.5t8.5 4t6.5 6.5t4.5 8.5t1.5 9.5zM776 533q6 0 11.5 2t9.5 7l73 72q9 9 9 21.5t-9 21
t-21.5 8.5t-21.5 -8l-72 -73q-9 -9 -9 -21.5t9 -21t21 -8.5zM227 56l-73 -72q-9 -9 -9 -21.5t9 -21.5t21.5 -9t21.5 9l72 73q9 8 9 20.5t-9 21.5t-21.5 9t-20.5 -9zM797 56q-3 4 -7.5 6t-9 2.5t-9 0t-9 -2.5t-7.5 -6q-6 -6 -8 -13.5t0 -15.5t8 -14l72 -72q4 -4 9.5 -6.5
t11.5 -2.5q13 0 21.5 9t8.5 21.5t-8 21.5zM227 542q4 -5 9.5 -7t11.5 -2q12 0 21 8.5t9 21t-9 21.5l-72 73q-5 4 -10.5 6t-11 2t-11 -2t-10.5 -6q-9 -9 -9 -21.5t9 -21.5z" />
    <glyph glyph-name="uniE61F" unicode="&#xe61f;" 
d="M589 681q124 -28 213 -116q56 -57 86 -128t30 -149q0 -27 -4 -53.5t-11.5 -52.5t-18.5 -50q-16 -37 -39 -69t-52 -60q-59 -56 -136 -87q-39 -16 -81 -24t-86 -8q-128 0 -234 67q-84 53 -134 135q14 -1 28 -1q94 0 180.5 35.5t149 95t99.5 142t37 173.5q0 38 -7 76t-20 74
zM517 735l-2 -3h1h3q-1 1 -1 2l-1 1v0zM519 732q27 -45 41.5 -96t14.5 -105q0 -110 -57 -203t-155 -147.5t-213 -54.5q-16 0 -32 1.5t-34 4.5l-19 -26q56 -118 170.5 -190.5t254.5 -72.5q96 0 182.5 35.5t149 95t100 142t37.5 172.5q0 117 -58.5 216.5t-159.5 160t-222 67.5
v0z" />
    <glyph glyph-name="uniE620" unicode="&#xe620;" 
d="M176 575q0 45 32.5 77t78.5 32h447q46 0 79 -32t33 -77v-491h-670v491zM176 29q0 -45 32.5 -77t78.5 -32h447q46 0 79 32t33 77v27h-670v-27zM64 575h84v-546h-84v546zM874 575h83v-546h-83v546z" />
    <glyph glyph-name="uniE621" unicode="&#xe621;" 
d="M440 32h139v-128h-139v128zM786 672h-554v-576h554v576zM717 160h-415v448h415v-448zM855 800h-761v-1024h831v64v896v64h-70zM855 -160h-692v896h692v-896z" />
    <glyph glyph-name="uniE622" unicode="&#xe622;" 
d="M519 -147h-16h-1h-16h-1h-16h-1v0l-15 1h-1l-17 1h-1h-1l-20 2h-1l-7 1h-1h-1l-20 3h-1q-1 0 -2 1l-20 3v1h-1l-10 2h-1h-1l-18 5l-1 1h-1l-10 3h-1l-1 1l-28 10h-1v1h-2l-7 3l-3 2h-1l-8 4q-1 0 -1 0.5v0.5h-1h-1l-20 11l-1 1q-1 1 -2 1l-19 13h-1l-1 1q-1 0 -1 1l-9 6
l-1 1l-1 1l-12 9q0 1 -1 1q0 1 -1 1l-14 13l-1 1l-1 1l-12 13h-1v1q-1 1 -2 1l-10 12q0 1 -1 2v0l-8 11q-1 0 -1 1h-1v1l-12 18q-1 1 -1 2q-1 0 -1 2l-17 30l-1 1v2q-1 0 -1 1v0l-1 2l-14 34v1q0 1 -1 1v2l-5 14v1v1l-7 24v0v1l-1 2v1v1l-5 23v1v0v1l-3 16v2l-2 19v1v0v1
l-2 13v1v11v1v1l-2 27v1v11v10v0v1v29v1v0v10v11v1l2 27v2v11v1l2 13v1v0v1l2 19v2l3 16v1v1l5 23v1v1l1 2v1v0l7 24v1v1l5 14v2q1 1 1 2l14 34l1 1v1q1 2 2 3l17 31q0 1 0.5 2t1.5 2l12 18q0 1 1 1l1 1l7 10q1 1 1 2q1 0 1 1l11 12v1h1q0 1 1 1l12 13l1 1l1 1l14 13
q1 0 1 1v0l1 1l12 9l1 1l1 1l9 7h1l1 1h1l19 13h1v1l2 1l20 11h1h1l1 1l8 4v0h1l3 2l7 3h1h1l1 1l28 10l1 1h1l10 3h1l1 1l18 4l1 1v0h1l9 2h1h1v1l21 3v1h2l21 3h1l7 1h1l20 2h1h1l17 1h1l15 1h1h16h1h16h1h16h16h1v0h17v0h1l14 -1h1h1l17 -1v0h1l20 -2h1h1l7 -1
q17 -2 27 -15t8 -30t-15 -27.5t-30 -8.5l-104 5l-88 -5l-47 -8l-26 -7l-32 -13h-1h-1l-26 -14l-36 -26l-32 -34l-18 -24l-15 -28l-17 -44l-6 -23l-11 -79l-2 -75l6 -88l7 -37l10 -35l13 -32l33 -53l20 -22l31 -26l43 -24l1 -1h1l41 -15l44 -11l92 -7h32l88 4l72 16l33 13v0
h1v1l27 13l36 26l39 43l11 15l15 28l17 44l13 60l4 42l1 27q1 17 13.5 28t28.5 11q11 -1 20.5 -6.5t14.5 -15t4 -20.5l-1 -28v-1v-1l-1 -11v0v-1v0l-1 -13v-1v-1l-3 -19v-1v-1l-2 -16l-1 -1v-1l-4 -23l-1 -1v0v-1v-2v-1h-1l-6 -24v-2h-1l-4 -14q0 -1 -1 -2v-1v-1l-14 -34v-1
h-1v-1l-1 -1v-2q-1 0 -1 -1l-17 -30q0 -1 -1 -2l-1 -1v-1l-12 -18l-1 -1l-1 -1l-8 -11l-1 -1l-1 -1l-10 -12l-1 -1v-1h-1l-12 -13l-1 -1q-1 0 -1 -0.5t-1 -0.5l-13 -13l-2 -1l-1 -1l-12 -9q0 -1 -0.5 -1t-0.5 -1l-10 -6q0 -1 -1 -1l-1 -1l-19 -13q-1 0 -2 -1h-1l-1 -1
l-20 -11h-1l-1 -1l-8 -4h-1l-3 -2h-1l-7 -3h-1l-1 -1l-28 -10l-1 -1h-2l-10 -3h-1q0 -1 -1 -1l-17 -4q-1 -1 -2 -1v0l-10 -2h-1l-1 -1l-20 -3l-1 -1h-1l-21 -3h-1v0h-1l-7 -1h-1l-20 -2h-1l-17 -1h-2l-14 -1h-1h-17h-1h-16zM522 178q-2 0 -4.5 0.5t-4.5 1t-4.5 1t-4.5 2
t-4 2.5q-46 30 -94 77.5t-81 97.5q-10 14 -6.5 30.5t17.5 26t30.5 6t25.5 -17.5q52 -78 128 -135q109 95 338 342l5 5q11 13 28 13.5t29.5 -11t13 -28t-10.5 -29.5l-5 -5q-255 -276 -370 -369q-6 -5 -12.5 -7.5t-13.5 -2.5z" />
    <glyph glyph-name="uniE623" unicode="&#xe623;" 
d="M509 741q-90 0 -171.5 -35t-140.5 -94t-94 -140.5t-35 -171.5t35 -171.5t94 -140.5t140.5 -94t171.5 -35t171.5 35t141 94t94.5 140.5t35 171.5t-35 171.5t-94.5 140.5t-141 94t-171.5 35zM509 -86q-105 0 -194 51.5t-140.5 140.5t-51.5 194t51.5 194t140.5 140.5
t194 51.5t194 -51.5t140.5 -140.5t51.5 -194q0 -152 -103 -263q-102 -109 -250 -122q-17 -1 -33 -1zM533 425zM544 513v-65h-70v65h70zM474 417h70v-408h-70v408z" />
    <glyph glyph-name="uniE624" unicode="&#xe624;" 
d="M86 276l401 -1l1 -401q0 -10 7 -17t17 -7t17 7t7 17l-1 403l403 -1q10 0 17 7t7 17q0 5 -2 9.5t-5.5 7.5t-7.5 5t-9 2l-401 1l-1 401q0 10 -7 17t-17 7q-6 0 -11.5 -3.5t-9 -9t-3.5 -11.5l1 -403l-403 1q-10 0 -17 -7t-7 -17q0 -5 2 -9.5t5.5 -7.5t7.5 -5t9 -2z" />
    <glyph glyph-name="uniE625" unicode="&#xe625;" 
d="M891 277q6 0 11.5 3t8.5 8.5t3 11.5q0 9 -7 16t-16 7h-758q-6 0 -11.5 -3t-8.5 -8.5t-3 -11.5q0 -3 0.5 -5.5t1.5 -4.5l4 -4q1 -2 3 -3.5t4 -2.5t4.5 -2t5.5 -1h758z" />
    <glyph glyph-name="uniE626" unicode="&#xe626;" 
d="M512 -112l480 608h-960z" />
    <glyph glyph-name="uniE627" unicode="&#xe627;" 
d="M65 683h894v-32h-894v32zM65 316h894v-32h-894v32zM65 -51h894v-32h-894v32z" />
    <glyph glyph-name="uniE628" unicode="&#xe628;" 
d="M507 181q-8 0 -15 6q-9 7 -23.5 20t-47.5 48.5t-58 71.5t-45 85t-20 93q0 86 61.5 147.5t148 61.5t148 -61.5t61.5 -147.5q0 -44 -20.5 -93t-45.5 -85t-58 -71.5t-47 -48.5t-24 -20q-2 -2 -3.5 -3t-3.5 -2h-4q-2 -1 -4 -1zM507 660q-65 0 -111 -44t-46 -106
q0 -47 32 -109t66 -103t59 -64q26 23 59.5 64t66 103t32.5 109q0 73 -61 118q-43 32 -97 32zM656 -112q-6 0 -12 3l-310 170l-235 -145q-13 -7 -25 0.5t-12 21.5v425q0 14 11 21l124 76q4 2 9 3t9.5 0t9 -3.5t7.5 -6.5q3 -6 3.5 -12.5t-2.5 -13t-8 -9.5l-111 -77v-346
l208 117q3 2 7.5 2.5t8.5 0t7 -2.5l311 -170l244 133v372l-83 -55q-8 -5 -18 -3t-16 10q-3 5 -4 10t0 9.5t4 9t7 6.5l124 76q12 8 25 1q3 -1 5.5 -3.5t4.5 -5.5t2.5 -6t0.5 -7v-424q0 -16 -13 -23l-272 -151q-2 -2 -5 -2.5t-6 -0.5z" />
    <glyph glyph-name="uniE629" unicode="&#xe629;" 
d="M959 685l-61 62l-388 -385l-385 385l-62 -62l386 -385l-386 -386l62 -61l385 384l388 -385l61 63l-388 385z" />
    <glyph glyph-name="uniE62A" unicode="&#xe62a;" 
d="M125 483l-1 -632h765v632h-764zM828 -82h-643v499h643v-499zM462 250h91v-166h-91v166zM278 749v-266h61v200h336v-200h61v266h-458z" />
    <glyph glyph-name="uniE62B" unicode="&#xe62b;" horiz-adv-x="1026" 
d="M513 609q-68 0 -132 -20.5t-128 -63t-121.5 -94.5t-130.5 -129q6 -6 16 -17l63 -66q21 -22 60 -59t65 -55.5t65.5 -43.5t74 -37t78.5 -21t90 -9q64 0 127.5 20.5t110 46t102.5 72.5t84.5 75t76.5 78q8 8 11 12q-33 40 -63.5 72.5t-71 70.5t-81.5 66t-88 52t-100 37
t-108 13zM513.5 97q-84.5 0 -144.5 60t-60 144.5t60 144.5t144.5 60t144.5 -60t60 -144.5t-60 -144.5t-144.5 -60zM513.5 421q-49.5 0 -84.5 -35t-35 -84.5t35 -84.5t84.5 -35t84.5 35t35 84.5t-35 84.5t-84.5 35z" />
    <glyph glyph-name="uniE62C" unicode="&#xe62c;" 
d="M784 261q0 -1 0.5 -1.5t0.5 -1.5v-374q0 -12 -8.5 -20.5t-20.5 -8.5q-8 0 -14.5 4t-10.5 10.5t-4 14.5v374v2v1q-36 6 -68 26t-55 50t-36.5 69.5t-13.5 82.5q0 46 16 89t43 73.5t64.5 49t78.5 18.5q83 0 142 -67.5t59 -162.5q0 -87 -49.5 -151.5t-123.5 -76.5zM756 661
q-60 0 -102 -50.5t-42 -122t42 -122t101.5 -50.5t102 50.5t42.5 122.5q0 46 -19.5 86t-52.5 63t-72 23zM238 261v-377q0 -8 -4 -14.5t-10.5 -10.5t-14.5 -4q-3 0 -5 1h-4l-4 2t-4 2.5t-3.5 3t-3 3.5t-2.5 4t-1.5 4t-1 4.5t-0.5 4.5v377q-33 7 -59 27t-41 50t-15 64v288
q0 12 8.5 20.5t20.5 8.5t20 -8.5t8 -20.5v-281q0 -20 7.5 -37.5t20.5 -30.5t30 -19v368q0 8 4 14.5t10.5 10.5t14.5 4q12 0 20.5 -8.5t8.5 -20.5v-368q16 6 29 19t20.5 30.5t7.5 37.5v108v173q0 12 8.5 20.5t20.5 8.5q6 0 11 -2.5t9 -6t6.5 -9t2.5 -11.5v-288
q0 -20 -6 -39.5t-16 -36t-24.5 -30t-32 -22.5t-36.5 -13z" />
    <glyph glyph-name="uniE62D" unicode="&#xe62d;" 
d="M379 347l-45 44l-241 -240l45 -45zM111 169l-44 -45l245 -245l45 45zM290 -99l44 -44l268 267l-44 45zM468 436l-44 44l241 241l44 -44zM647 703l44 45l246 -245l-45 -45zM915 525l44 -45l-268 -267l-44 45zM647 480l44 -44l-312 -312l-45 45z" />
    <glyph glyph-name="uniE62E" unicode="&#xe62e;" 
d="M602 237q-92 0 -157 65t-65 157t65 157t157 65t157 -65t65 -157t-65 -157t-157 -65zM602 628q-46 0 -85 -22.5t-62 -61.5t-23 -85q0 -35 13.5 -66.5t36.5 -54t54 -36t66 -13.5q70 0 120 50t50 120t-50 119.5t-120 49.5zM935 -102q-9 0 -17 6.5t-8 15.5q0 132 -84 228
q-11 13 4 31q2 1 3.5 2.5t3.5 2.5h4q2 1 4 1t4 -1h4q2 -1 3.5 -2.5t3.5 -2.5q94 -108 94 -259q0 -9 -5.5 -15.5t-13.5 -6.5zM272 -102q-4 0 -8 1.5t-6.5 4.5t-4.5 7t-2 9q0 75 28 143t75.5 117.5t112.5 79t137 29.5h2q5 -1 9.5 -4t7 -8t2.5 -11t-3.5 -12t-8.5 -9.5t-11 -2.5
q-127 0 -216 -98q-85 -94 -89 -224q0 -6 -4 -11t-9.5 -8t-11.5 -3zM358 237q-77 0 -132 57.5t-55 138.5t55 138.5t132 57.5q9 0 15.5 -6.5t6.5 -15.5t-5.5 -15.5t-14.5 -7.5q-60 -3 -101 -46t-41 -105t41.5 -105t100.5 -48q9 -1 14.5 -7t5.5 -15q0 -6 -3 -11t-8 -7.5
t-11 -2.5zM88.5 -50q-8.5 0 -15 6.5t-6.5 15.5q0 131 85.5 224t206.5 93q9 0 15 -6.5t6 -15.5t-6 -16t-15 -7q-68 0 -125 -36.5t-90 -99t-33 -136.5q0 -9 -7 -15.5t-15.5 -6.5z" />
    <glyph glyph-name="uniE62F" unicode="&#xe62f;" 
d="M769 359v-503h55v503h-55zM661 555h-245q-5 0 -10 -2.5t-9 -6t-6 -8.5t-2 -11q0 -4 1 -7.5t3 -6.5t4.5 -6t5.5 -4.5t6.5 -2.5t6.5 -1h245q5 0 10 2t9 6t6 9t2 11q0 7 -3.5 13.5t-10 10.5t-13.5 4zM661 359h-245q-11 0 -19 -8t-8 -19.5t8 -20t19 -8.5h245q7 0 13.5 4
t10 10.5t3.5 14t-3.5 14t-10 10t-13.5 3.5zM661 219h-435q-7 0 -13.5 -3.5t-10 -10t-3.5 -14.5q0 -11 8 -19.5t19 -8.5h435q11 0 19 8.5t8 19.5q0 5 -1.5 9.5t-4 7.5t-6 6t-7.5 4t-8 1zM661 80h-435q-5 0 -10 -2.5t-9 -6t-6 -9t-2 -10.5q0 -12 8 -20t19 -8h435q11 0 19 8
t8 19.5t-8 20t-19 8.5zM280 555h-54q-7 0 -13.5 -4t-10 -10.5t-3.5 -14t3.5 -14t10 -10t13.5 -3.5h54q6 0 11 2t8.5 6t6 9t2.5 11q0 11 -8 19.5t-20 8.5zM280 359h-54q-4 0 -7.5 -1t-6.5 -2.5t-5.5 -4.5t-4 -6t-2.5 -6.5t-1 -7.5q0 -7 3.5 -13.5t10 -10.5t13.5 -4h54
q6 0 11 2.5t8.5 6t6 9t2.5 10.5q0 8 -4 14.5t-10 10t-14 3.5zM824 750v-391h-55v336h-652v-783h652v-56h-706v894h761zM661 555h-245q-5 0 -10 -2.5t-9 -6t-6 -8.5t-2 -11q0 -4 1 -7.5t3 -6.5t4.5 -6t5.5 -4.5t6.5 -2.5t6.5 -1h245q5 0 10 2t9 6t6 9t2 11q0 7 -3.5 13.5
t-10 10.5t-13.5 4zM661 359h-245q-11 0 -19 -8t-8 -19.5t8 -20t19 -8.5h245q7 0 13.5 4t10 10.5t3.5 14t-3.5 14t-10 10t-13.5 3.5zM661 219h-435q-7 0 -13.5 -3.5t-10 -10t-3.5 -14.5q0 -11 8 -19.5t19 -8.5h435q11 0 19 8.5t8 19.5q0 5 -1.5 9.5t-4 7.5t-6 6t-7.5 4t-8 1z
M661 80h-435q-5 0 -10 -2.5t-9 -6t-6 -9t-2 -10.5q0 -12 8 -20t19 -8h435q11 0 19 8t8 19.5t-8 20t-19 8.5zM280 555h-54q-7 0 -13.5 -4t-10 -10.5t-3.5 -14t3.5 -14t10 -10t13.5 -3.5h54q6 0 11 2t8.5 6t6 9t2.5 11q0 11 -8 19.5t-20 8.5zM280 359h-54q-4 0 -7.5 -1
t-6.5 -2.5t-5.5 -4.5t-4 -6t-2.5 -6.5t-1 -7.5q0 -7 3.5 -13.5t10 -10.5t13.5 -4h54q6 0 11 2.5t8.5 6t6 9t2.5 10.5q0 8 -4 14.5t-10 10t-14 3.5zM661 555h-245q-5 0 -10 -2.5t-9 -6t-6 -8.5t-2 -11q0 -4 1 -7.5t3 -6.5t4.5 -6t5.5 -4.5t6.5 -2.5t6.5 -1h245q5 0 10 2t9 6
t6 9t2 11q0 7 -3.5 13.5t-10 10.5t-13.5 4zM661 219h-435q-7 0 -13.5 -3.5t-10 -10t-3.5 -14.5q0 -11 8 -19.5t19 -8.5h435q11 0 19 8.5t8 19.5q0 5 -1.5 9.5t-4 7.5t-6 6t-7.5 4t-8 1zM661 80h-435q-5 0 -10 -2.5t-9 -6t-6 -9t-2 -10.5q0 -12 8 -20t19 -8h435q11 0 19 8
t8 19.5t-8 20t-19 8.5zM769 359v-503h191v503h-191zM905 -88h-81v391h81v-391zM280 555h-54q-7 0 -13.5 -4t-10 -10.5t-3.5 -14t3.5 -14t10 -10t13.5 -3.5h54q6 0 11 2t8.5 6t6 9t2.5 11q0 11 -8 19.5t-20 8.5zM661 359h-245q-11 0 -19 -8t-8 -19.5t8 -20t19 -8.5h245
q7 0 13.5 4t10 10.5t3.5 14t-3.5 14t-10 10t-13.5 3.5zM280 359h-54q-4 0 -7.5 -1t-6.5 -2.5t-5.5 -4.5t-4 -6t-2.5 -6.5t-1 -7.5q0 -7 3.5 -13.5t10 -10.5t13.5 -4h54q6 0 11 2.5t8.5 6t6 9t2.5 10.5q0 8 -4 14.5t-10 10t-14 3.5z" />
    <glyph glyph-name="uniE630" unicode="&#xe630;" 
d="M925 233v-379h-830v828h299v-69h-233v-690h697v310h67zM482 134l-53 42l45 57l292 380l54 69l50 64l53 -41l-18 -23l-54 -69l-292 -380z" />
    <glyph glyph-name="uniE631" unicode="&#xe631;" 
d="M558 708q19 0 37 -7q9 -4 17.5 -9.5t15.5 -12.5q28 -31 23 -83q-2 -31 -5.5 -57.5t-7.5 -46.5t-8 -34t-8 -26q-5 -13 -9.5 -23t-10.5 -16q-16 -21 -7 -43.5t34 -25.5h5h18h45h173q13 0 30 -8q7 -3 11.5 -6t6.5 -6q-1 -99 -27 -183q-19 -60 -49 -108q-24 -40 -54 -70
q-39 -39 -70 -50h-590q-7 0 -12.5 5t-5.5 11v399q0 4 2.5 8t6.5 6t9 2h2h2q6 1 18 2.5t58.5 8.5t105.5 18q86 16 120 76.5t90 266.5q1 5 11 8.5t23 3.5v0zM558 749q-27 0 -47.5 -11t-25.5 -31q-18 -65 -27 -96t-21.5 -71t-21 -56.5t-20 -37t-24 -28t-28 -14.5t-37.5 -11
q-21 -4 -40.5 -7.5t-35 -6t-29 -4.5t-23.5 -3.5t-18.5 -2.5t-14 -2t-9.5 -1.5t-6 -0.5h-2q-24 0 -41.5 -16.5t-17.5 -40.5v-399q0 -15 8 -28t21.5 -21t29.5 -8h594q5 0 17 5.5t30 17t39.5 32t43 47.5t42.5 67.5t36 87.5q6 19 11 41t8 40.5t5 37t3 32.5t1.5 25t0.5 17v6
q0 22 -30.5 39.5t-58.5 17.5h-173h-46h-18l3 5q4 4 12 19.5t16 38.5t16 66.5t12 98.5q3 31 -4 57.5t-20.5 44.5t-32 30.5t-38 18t-39.5 5.5zM247 365q-12 0 -20.5 -8t-8.5 -20v-421q0 -8 4 -14t10.5 -10t14.5 -4q13 0 21.5 8t8.5 20v421q0 12 -8.5 20t-21.5 8z" />
    <glyph glyph-name="uniE632" unicode="&#xe632;" 
d="M959 308q0 22 -30.5 39.5t-58.5 17.5q-232 -1 -237 0l2 2t6 9t9.5 17t11.5 28t11.5 41t10.5 57t8 74q8 95 -65 137q-52 31 -103 14q-32 -11 -39 -37q-54 -198 -81.5 -249.5t-97.5 -64.5q-58 -11 -102.5 -18t-60.5 -8l-15 -2q-24 0 -41.5 -16.5t-17.5 -40.5v-399
q0 -23 17.5 -40t41.5 -17h594q5 0 17 5.5t30 17t39.5 32t43 47.5t42.5 67.5t36 87.5q29 93 29 199zM277 -84q0 -12 -8.5 -20t-21.5 -8q-6 0 -11 2.5t-9 5.5q-9 8 -9 20v421q0 8 4 14t10.5 10t14.5 4q13 0 21.5 -8t8.5 -20v-421z" />
    <glyph glyph-name="uniE633" unicode="&#xe633;" 
d="M412 243q-15 0 -26 -11t-11 -26q0 -7 3 -14t8 -11.5t11.5 -7.5t14.5 -3q15 0 25.5 10.5t10.5 25.5q0 5 -1 10t-3.5 9t-6 7t-7.5 5.5t-8.5 4t-9.5 1.5zM631 243q-16 0 -26.5 -11t-10.5 -26q0 -10 5 -18t13.5 -13t18.5 -5q15 0 25.5 10.5t10.5 25.5q0 10 -5 18.5
t-13.5 13.5t-17.5 5zM943 548l-393 136q-16 6 -38 6t-38 -6l-393 -136q-16 -6 -16 -13.5t16 -13.5l185 -64v-123q0 -3 9 -5v-32q-1 0 -3 -0.5t-7.5 -2.5t-11 -4.5t-12 -8t-12.5 -11.5q-13 -15 -18.5 -36t-2 -46t27.5 -52t66 -48q1 -5 4 -13.5t14 -31.5t26 -43t42 -42t60 -34
q30 -12 73 -9q37 -1 63 9q32 12 59 34t42 43t25.5 42t14 32t3.5 13q42 21 65.5 48t26.5 52t-2.5 46t-17.5 36q-8 9 -16.5 14.5t-16.5 8.5v36q5 1 7 2.5t2 2.5v130l57 19q7 -2 12.5 -5.5t9 -6t6.5 -5.5t4 -5.5t1.5 -4t0.5 -3.5l1 -1v-91q-19 -7 -27.5 -19t-8 -25.5t5 -27.5
t13 -27t16 -23.5t13.5 -16.5l6 -7q30 34 43.5 61t10 42t-11 25.5t-15.5 14.5l-9 3q1 36 0 91q-1 31 -21 49l60 20q16 6 16 13.5t-16 13.5zM773 234q8 -20 3.5 -38t-18.5 -33t-28.5 -25.5t-26.5 -16.5l-11 -6q-9 -57 -42.5 -97t-74.5 -58q-6 -2 -12.5 -4t-12.5 -3t-11.5 -1.5
t-9.5 -0.5h-8h-3h-6v-1q-30 0 -55 10q-42 18 -76 58t-42 97q-3 1 -6.5 3t-15.5 9t-21 14t-21 18t-16.5 22t-7.5 25t6 28q3 7 10.5 13.5t19.5 11t24 2.5v61l189 -41q9 -2 21 -2t21 2l186 38v-58q18 2 28 -6t17 -21zM302 370v75l172 -60q10 -3 24 -4.5t28 0t24 4.5l190 66v-81
h-9l-192 -43q-7 -2 -18 -2t-18 2l-191 43h-10zM855 525l-19 -6l-307 69h-2h-1v1h-1h-1h-1h-1h-1q-5 0 -9 -2.5t-6.5 -6.5t-2.5 -9q0 -8 5.5 -13t12.5 -5q18 -4 47.5 -10.5t96 -21t104.5 -22.5l-227 -70q-30 -9 -60 0l-313 96q-13 4 -13 9.5t13 9.5l313 96q30 9 60 0l313 -96
q30 -9 0 -19zM886 334q1 0 2 -0.5t4.5 -2t6 -3.5t4.5 -6.5t1 -10t-5.5 -14t-12.5 -18.5q-2 2 -4.5 5.5t-7.5 12t-6.5 15t2.5 13.5t16 9z" />
    <glyph glyph-name="uniE634" unicode="&#xe634;" 
d="M917 600q9 11 13.5 25t3.5 27.5t-6.5 26.5t-16.5 24q-21 21 -50.5 22.5t-52.5 -16.5q-82 48 -180.5 35.5t-169.5 -82.5q-63 -63 -80 -150t16 -165q-4 -16 -11 -33.5t-25 -45.5t-43.5 -54t-70.5 -57.5t-101 -57.5q-24 -10 -42 -28q-37 -37 -37 -89t37 -89t89.5 -37
t89.5 37q19 19 28 44q22 47 47 86t48.5 64.5t45.5 44t43 29.5t35.5 16.5t27.5 7.5q78 -32 165 -15t150 80q70 70 83 168.5t-36 181.5zM829 675q7 8 17 10.5t20 0t18 -10.5q11 -11 11 -27t-11 -28q-8 -7 -18 -9.5t-20 0t-17 9.5q-5 5 -7.5 10.5t-3.5 11.5t0 12t3.5 11.5
t7.5 9.5zM170 71l5 -5zM272 -31l8 -8l-8 8q-4 -26 -23 -45q-24 -25 -58.5 -25t-58.5 24.5t-24 58.5t24 58q19 19 46 23l-1 1l22 11q14 7 51 30.5t67 49t60.5 64t42.5 78.5q4 -7 8.5 -13t9 -11.5t10 -11.5t10.5 -11q21 -21 46 -38q-40 -11 -79 -41.5t-64 -61t-48.5 -67.5
t-30.5 -51t-10 -22zM485.5 277.5q-53.5 53.5 -68.5 127t11 140.5q29 -102 126 -199q48 -48 99.5 -80.5t99.5 -46.5q-67 -26 -140.5 -10.5t-127 69zM815 253q-35 5 -74 22t-80.5 45.5t-78.5 66.5q-102 102 -129 207q7 10 14.5 19.5t16.5 18.5q9 -52 43.5 -111t88.5 -113.5
t113.5 -89t110.5 -43.5q-12 -12 -25 -22zM874 315q-52 8 -113.5 43t-116.5 91q-34 33 -61 70t-44 72t-25 68q39 29 86 41t94.5 6.5t90.5 -28.5q-9 -21 -4.5 -44.5t21 -40.5t40 -21.5t44.5 4.5q33 -61 30 -131.5t-42 -129.5z" />
    <glyph glyph-name="uniE635" unicode="&#xe635;" 
d="M867 -39h-716q-44 0 -68 27q-24 26 -22 64v358q0 26 10.5 46t26 30.5t30.5 15.5t30 6l148 1q7 110 68 134q8 4 14 4h3h244q18 0 33.5 -6t26.5 -16.5t19.5 -24t14 -29.5t9 -31t4.5 -31h124q44 0 65.5 -28.5t23.5 -59.5v-2v-368q0 -43 -28 -65t-59 -25h-1zM109 49
q-1 -18 9 -29t33 -11h713q5 1 11 2.5t14 6t13.5 13t5.5 20.5v367q-1 5 -2.5 10.5t-5.5 14t-13 13.5t-21 5h-170v24q0 1 -0.5 4t-1 10.5t-1.5 15.5t-3.5 18t-5.5 19t-7.5 18t-10.5 15.5t-14 10.5t-17 4h-242l-4 -2q-2 -1 -6 -4.5t-7.5 -8.5t-8 -14t-7.5 -20.5t-5 -28.5
t-2 -37v-24l-194 -1q-5 0 -11.5 -2t-16 -6.5t-16 -15t-6.5 -26.5v-361v0zM515 49q-80 0 -137 57t-57 137t57 137t137 57q32 0 61.5 -9.5t53.5 -27.5t41.5 -42t27.5 -53.5t10 -61.5q0 -80 -57 -137t-137 -57zM515 386q-29 0 -55.5 -11.5t-45.5 -30.5t-30.5 -45.5t-11.5 -55.5
q0 -59 42 -101t101 -42t101 42t42 101t-42 101t-101 42zM796 322q-15 0 -26.5 11t-11.5 27q0 8 3 15t8 12.5t12.5 8.5t14.5 3q16 0 27.5 -11.5t11.5 -27.5q0 -10 -5 -19t-14 -14t-20 -5z" />
    <glyph glyph-name="uniE636" unicode="&#xe636;" 
d="M948 557l-545 -546l-2 2l-4 -4l-321 317l33 34l290 -285l515 516z" />
    <glyph glyph-name="uniE637" unicode="&#xe637;" 
d="M954 602l-71 76q-3 3 -7.5 3t-7.5 -3l-334 -336l-85 -167q-1 -3 -0.5 -6.5t2.5 -6.5q4 -3 8 -3q1 0 2.5 0.5t2.5 0.5l160 91l2 2l328 334q8 7 0 15zM875 654l32 -33l-300 -301l-31 32zM612 269l-72 -40q-11 4 -16.5 11.5t-8.5 16.5l36 71l18 17l59 -60zM634 292l-20 21
l300 301l18 -19zM240 92q-9 0 -9 -10t9 -10h97q10 0 10 10q0 2 -1 4t-2 3t-3 2t-4 1h-97zM395 230q0 4 -3 6.5t-7 2.5h-145q-9 0 -9 -9.5t9 -9.5h145q4 0 7 3t3 7zM467 377q0 3 -1 5t-3.5 3.5t-4.5 1.5h-218q-9 0 -9 -9.5t9 -9.5h218q9 0 9 9zM696 -56q0 -13 -9.5 -22
t-21.5 -9h-511q-13 0 -22 9t-9 22v714q0 9 4 16t11.5 11t15.5 4h340v-200q0 -3 1.5 -5.5t3 -4t4 -3t5.5 -1.5h28l28 28h-42v158l96 -104l41 41l-130 140q-8 9 -21 9h-354q-37 0 -63 -26t-26 -63v-714q0 -24 12 -44.5t32.5 -32.5t44.5 -12h511q18 0 34.5 7t28.5 19t19 28.5
t7 34.5v274l-58 -57v-217z" />
    <glyph glyph-name="uniE638" unicode="&#xe638;" 
d="M933 437h-83l-11 -3l-38 147q-6 31 -22 55t-40 37.5t-51 13.5h-353q-31 0 -55.5 -16t-38.5 -39t-20 -51l-37 -147q-6 3 -12 3h-83q-10 0 -16.5 -7t-6.5 -16v-20q0 -9 6.5 -16t16.5 -7l31 -5q-15 -30 -15 -67l-12 -131q0 -5 1 -11q-1 -4 -1 -8v-194q0 -16 12 -28t29 -12
h64q17 0 29 12t12 28v87h544v-87q0 -16 12.5 -28t29.5 -12h63q17 0 29.5 12t12.5 28v194q0 3 -1 8q1 6 1 11l-12 131q0 37 -16 67l31 5q10 0 16.5 7t6.5 16v20q0 9 -6.5 16t-16.5 7zM249 460l28 108v2q5 23 18 40h433q13 -16 17 -40l28 -110l10 -40q-1 -21 -22.5 -37
t-45.5 -16h-408q-7 0 -15 2t-15 5.5t-14 8t-12 10.5t-8 13t-4 14zM269 117q-26 0 -44.5 18t-18.5 43.5t18.5 43.5t44.5 18t44.5 -18t18.5 -43.5t-18.5 -43.5t-44.5 -18zM619 162q0 -3 -1.5 -6.5t-4 -6t-5.5 -4t-7 -1.5h-176q-3 0 -5 0.5t-3.5 1.5t-3.5 2t-3 2.5t-2 3.5
t-1.5 4t-0.5 4v52q0 4 1.5 7t4 5.5t6 4t7.5 1.5h176q7 0 12.5 -5.5t5.5 -12.5v-52zM754 117q-17 0 -31.5 8t-23 22.5t-8.5 30.5q0 26 18.5 44t44.5 18q13 0 24.5 -5t20 -13t13.5 -19.5t5 -24.5q0 -25 -18.5 -43t-44.5 -18zM471 537h84q6 0 10.5 4.5t4.5 10.5l-1 13
q0 6 -4.5 10.5t-11.5 4.5h-81q-7 0 -11.5 -4.5t-4.5 -10.5l-1 -13q0 -6 4.5 -10.5t11.5 -4.5z" />
    <glyph glyph-name="uniE639" unicode="&#xe639;" 
d="M511 -145q-26 0 -47.5 14t-31.5 37l-195 431q-19 42 -19 108q0 126 85.5 215.5t207 89.5t207 -89.5t85.5 -215.5q0 -34 -4.5 -60t-14.5 -48l-194 -431q-6 -12 -14 -21.5t-18.5 -16t-22.5 -10t-24 -3.5zM511 709q-105 0 -179.5 -77.5t-74.5 -186.5q0 -56 16 -91l194 -431
q4 -8 10.5 -14.5t15 -10t18.5 -3.5q31 0 43 28l195 431q8 18 11.5 40t3.5 51q0 109 -74 186.5t-179 77.5zM511 282q-65 0 -111 47.5t-46 115t46 115.5t110.5 48t110.5 -48t46 -115q0 -44 -21 -81.5t-57 -59.5t-78 -22zM510.5 567q-48.5 0 -83 -36t-34.5 -86.5t34.5 -86
t83 -35.5t83 35.5t34.5 86t-34.5 86.5t-83 36z" />
    <glyph glyph-name="uniE63A" unicode="&#xe63a;" 
d="M612 112v-193q0 -11 -7.5 -18.5t-17.5 -7.5t-18 8l-244 240h-195q-7 0 -13 3.5t-9.5 9t-3.5 12.5v270q0 10 7.5 17.5t18.5 7.5h195l244 240q8 8 18 8t17.5 -7.5t7.5 -17.5v-181h41v181q0 26 -19.5 45t-46.5 19t-47 -19l-231 -228h-179q-14 0 -26 -5t-20.5 -14t-14 -21
t-5.5 -25v-270q0 -27 19.5 -46t46.5 -19h179l231 -228q20 -19 47 -19t46.5 19t19.5 46v193h-41zM725 220q-3 -2 -8 -2q-6 0 -11.5 3t-8.5 8t-3 11.5t3 11t7.5 7t10 6.5t10 8t7.5 11t3 17t-3 17.5t-7.5 11.5t-10 7.5t-10 6t-7.5 7.5t-3 11q0 2 1 4l2 6q1 2 2.5 4t3.5 3.5
t4 2.5t4.5 1.5t5.5 0.5h3q1 0 2.5 -0.5t2.5 -1.5q13 -5 23 -13.5t17 -19t11 -23t4 -25.5q0 -17 -7 -33t-19 -28.5t-29 -19.5zM761 139q-2 -1 -4.5 -1.5t-4.5 -0.5q-9 0 -16 6.5t-7 15.5q0 14 14 21q1 0 4 2l4 2q1 0 3.5 1.5t4 2.5t3.5 2l4 2q2 1 4 3q25 18 39.5 46.5
t14.5 60t-14.5 59.5t-39.5 47q-2 1 -4.5 2.5t-4.5 2.5t-4.5 2.5t-4 2.5t-5 2.5t-4.5 2.5q-6 3 -10 8t-4 12q0 9 7 15.5t16 6.5q2 0 4.5 -0.5t4.5 -1.5q49 -20 78.5 -64.5t29.5 -97.5t-29.5 -97.5t-78.5 -64.5zM796 58q-5 -2 -9 -2t-8.5 2t-7.5 5t-4.5 7t-1.5 8q0 7 3 12
t10 9q2 1 4 1.5t4 1.5l4 2l4 2q16 8 29 17q28 21 48.5 49t31.5 61t11 68t-11 68t-31.5 61t-48.5 49q-13 9 -29 17q-2 2 -7.5 4t-8.5 4q-13 8 -13 20q0 9 6.5 15.5t15.5 6.5q4 0 9 -2q37 -15 67 -40.5t51.5 -57t33 -69t11.5 -76.5q0 -79 -44.5 -145.5t-118.5 -97.5z" />
    <glyph glyph-name="uniE63B" unicode="&#xe63b;" 
d="M320 184l56 -53q56 53 134.5 53t134.5 -53h1v-1l56 54v0q-52 49 -121.5 66.5t-139 0t-121.5 -66.5zM193 304l56 -53q71 66 166 89.5t190.5 0t165.5 -90.5h1v-1l57 53l-1 1q-86 81 -202 110t-231.5 0.5t-201.5 -109.5zM955 425q-121 114 -283 154.5t-324 0t-283 -154.5h-1
l57 -53v0q53 50 117.5 84t132 50.5t139.5 16.5t139.5 -16.5t132 -50.5t117.5 -84l1 -1l1 -1l56 53q-1 2 -2 2zM448 64l64 -60l63 60q-13 12 -29.5 18.5t-33.5 6.5t-34 -6.5t-30 -18.5z" />
    <glyph glyph-name="uniE63C" unicode="&#xe63c;" 
d="M885 375h-747q-31 0 -53 -21.5t-22 -51.5v-24q0 -24 14.5 -43t36.5 -26l75 -254l2 -5q19 -38 42 -50t54 -12h449q15 0 25.5 2t24 8t25 19t21.5 33q1 2 2 5l75 254q22 7 36.5 26t14.5 43v24q0 30 -22 51.5t-53 21.5zM910 278q0 -7 -3 -12t-8 -8.5t-12 -3.5q-5 -1 -9.5 -3
t-7.5 -6t-5 -9l-78 -266q-6 -12 -11.5 -19t-12.5 -10t-12 -4t-15 -1h-449q-13 0 -19.5 1.5t-15 9t-16.5 23.5l-78 266q-5 16 -22 18q-10 0 -16.5 7t-6.5 17v24q0 7 3 12.5t9 9t13 3.5h747q3 0 6 -1t5.5 -2t4.5 -3l4 -4q2 -2 3 -4.5t1.5 -5t0.5 -5.5v-24zM311 430l183 184
l18 -3q9 0 18 3l182 -184q8 -7 19 -7h5q2 0 4.5 1t5 2.5t3.5 3.5q8 7 8.5 18t-7.5 18l-187 189v1q1 4 1 6q0 21 -15.5 36t-36.5 15q-15 0 -27 -7t-19 -18.5t-7 -25.5q0 -1 0.5 -2.5t0.5 -2.5v-3l-187 -188q-5 -5 -6.5 -11.5t0 -13t6.5 -11.5q8 -8 19 -7.5t19 7.5zM807 246
h-583q-5 0 -9 -4t-4 -9q0 -4 1.5 -7t5 -5t6.5 -2h583q3 0 5.5 1.5t4 3t2.5 4t1 5.5q0 5 -4 9t-9 4zM783 158h-541q-5 0 -9 -4t-4 -9t4 -9t9 -4h541q6 0 9.5 4t3.5 9q-1 12 -13 13zM751 71h-486q-5 0 -9 -4t-4 -10q0 -3 2 -6t5 -5t6 -2h486q5 0 9 4t4 9.5t-4 9.5t-9 4z" />
    <glyph glyph-name="uniE63D" unicode="&#xe63d;" 
d="M676 751h-329q-34 0 -58 -23.5t-24 -56.5v-740q0 -33 24 -56t58 -23h329q34 0 58 23t24 56v740q0 33 -24 56.5t-58 23.5zM448 687h98q7 0 11.5 -4.5t4.5 -11t-4.5 -11.5t-11.5 -5h-98q-7 0 -11.5 5t-4.5 11q0 5 2 8.5t6 5.5t8 2zM294 606h435v-609h-435v609zM511 -32
q18 0 31 -13t13 -31t-13 -30.5t-31 -12.5q-11 0 -21 5.5t-16 15.5t-6 22q0 18 12.5 31t30.5 13zM427 220q-17 24 -41 41q-4 2 -8.5 2t-9.5 -2t-9 -5.5t-5.5 -8t-1 -8t3.5 -5.5q6 -4 11 -8t9.5 -9t8.5 -9.5t8 -10.5q5 -7 9.5 -14.5t7.5 -15.5t6 -17q1 -5 8 -6.5t14 2.5
q1 0 2 0.5t2 1.5q14 9 11 20q-3 9 -7 18t-8.5 17.5t-10.5 16.5zM671 163q0 52 -14 98.5t-42 84.5q-18 25 -42 46.5t-53 38.5t-63 29q-4 2 -9 1t-9.5 -4t-8.5 -7q-5 -6 -4 -12t7 -8q95 -34 148 -107t53 -172q0 -6 5.5 -8.5t12.5 -0.5q5 2 8 4q5 3 8 7.5t3 9.5zM520 282
q-33 47 -86 74q-4 1 -8.5 1t-9.5 -2.5t-9 -6.5t-5 -8t0 -7.5t5 -5.5q49 -25 79.5 -67t37.5 -96q1 -4 4 -6.5t7 -2.5t10 2q1 0 2.5 1t3.5 2q12 8 10 18q-1 8 -2.5 16.5t-4 16t-5 15.5t-5.5 15t-7 14l-8 14q-4 7 -9 13z" />
    <glyph glyph-name="uniE63E" unicode="&#xe63e;" 
d="M514 -144q-59 0 -116 15q-159 43 -252 178q-96 139 -78 305q4 34 13 66q23 87 77 157t132 115q51 30 108 45.5t115.5 15.5t116.5 -16q117 -31 201.5 -116t115.5 -200t0 -233q-6 -20 -13.5 -40t-16.5 -39.5t-21 -37.5q-5 -8 -13.5 -10t-16.5 2.5t-10.5 13.5t2.5 17
q31 50 46 106q20 78 10 157t-51 149q-27 46 -64 83.5t-83 64t-98 40.5q-78 21 -157 10.5t-149 -51t-118.5 -103.5t-69.5 -141q-23 -81 -10 -160.5t50.5 -146t101.5 -116.5t143 -71q142 -39 275 24q6 3 -86 57l28 28l129 -71q3 -25 -8 -31q-108 -66 -233 -66zM542 556v-280
q0 -3 -2 -7t-4.5 -8t-6.5 -6.5t-8 -4.5t-7.5 -2t-7.5 2t-7.5 4.5t-6.5 6.5t-4.5 8t-1.5 7v280h56zM514 304h224v-56h-224q-15 0 -21 20q-2 4 -2 8q0 10 7 19t16 9z" />
    <glyph glyph-name="uniE63F" unicode="&#xe63f;" 
d="M254 386.5q0 -15.5 7.5 -28t20.5 -20t28 -7.5q6 0 12.5 1.5t12 4t10.5 6.5t8.5 9t6.5 10.5t4.5 11.5t1.5 13q0 23 -16.5 39t-39.5 16q-15 0 -28 -7t-20.5 -20t-7.5 -28.5zM848 722h-673q-22 0 -43 -9t-35.5 -24t-23.5 -35.5t-9 -43.5v-447q0 -30 15 -56t40.5 -41
t55.5 -15h362l156 -158q13 -13 31 -13t31 13t13 31.5t-13 31.5l-169 172q-16 16 -38 13h-351q-18 0 -31 13t-13 31v400q0 19 13 33.5t31 14.5h628q18 0 31 -14.5t13 -33.5v-400q0 -18 -13 -31t-31 -13h-16h-7q-12 0 -22.5 -6t-16.5 -16.5t-6 -22.5q0 -18 13 -31.5t32 -13.5
h3h43q46 0 78.5 33t32.5 79v447q0 47 -32.5 79.5t-78.5 32.5zM455 387q0 -16 7.5 -28.5t20.5 -20t28 -7.5q11 0 21.5 4.5t18 12t12 17.5t4.5 22q0 23 -16.5 39t-39.5 16t-39.5 -16t-16.5 -39zM712 442q-15 0 -28 -7t-20.5 -20t-7.5 -28.5t7.5 -28t20.5 -20t28 -7.5
q23 0 39.5 16t16.5 40q0 15 -7.5 28t-20.5 20t-28 7z" />
    <glyph glyph-name="uniE640" unicode="&#xe640;" 
d="M279 620q18 0 37 -6.5t39 -19.5q10 -7 20.5 -15.5t20.5 -19t20 -22t19.5 -25t19.5 -28.5l70 -110l69 111q44 72 95 106q19 13 38 19.5t38 6.5q25 0 48.5 -12t41.5 -35q25 -31 34 -73q9 -45 -3 -94q-9 -26 -62 -91q-25 -31 -59 -68.5t-75 -80.5q-82 -85 -165 -162
q-78 73 -145 142q-44 45 -79.5 84.5t-62.5 72.5q-61 76 -71 110q-6 23 -7 46.5t3 46.5q4 20 12 38.5t20 33.5q35 45 84 45zM279 700q-39 0 -75.5 -17t-62.5 -46.5t-43.5 -69t-19.5 -85t11 -94.5q11 -39 60 -105t110.5 -131t122 -124.5t101.5 -97.5l41 -37q7 0 130 120
q258 251 305 352q4 9 6 16q11 51 8 98t-21 86.5t-45.5 69t-64.5 46t-77 16.5q-63 0 -125.5 -41.5t-115.5 -128.5q-38 60 -81.5 99.5t-83.5 56.5t-80 17z" />
    <glyph glyph-name="uniE641" unicode="&#xe641;" 
d="M288 684q-91 0 -157.5 -75.5t-67.5 -204.5q0 -44 32.5 -98.5t81.5 -105t106.5 -102.5t107.5 -91.5t85.5 -70.5t38.5 -41q2 10 37 41.5t85 71t108 92t107 103t81.5 105.5t31.5 97q-1 129 -67 202t-158 73q-68 0 -129.5 -43.5t-96.5 -125.5q-36 85 -97 129t-129 44z" />
    <glyph glyph-name="uniE642" unicode="&#xe642;" 
d="M695 581q47 38 69.5 75.5t4.5 64.5q-21 31 -72.5 28.5t-103.5 -36.5q-48 -32 -71 -73q-1 -1 -2 -3t-2 -3.5t-1.5 -3.5t-1 -3.5t-1.5 -3t-1 -3.5q-19 52 -80 93q-52 34 -103.5 36.5t-72.5 -28.5q-12 -18 -11 -40t15 -47q8 -13 28.5 -28t41.5 -25h-212v-182h61v-545h666
v545h61v182h-212zM575 610q16 29 52 52q13 9 26.5 15.5t26.5 10t24 3.5q12 0 15 -3q2 -4 -2 -15t-19 -28.5t-38 -32.5q-43 -28 -77 -28q-12 0 -15 3q0 1 -0.5 3t1.5 8t6 12zM307 688q2 3 15 3q5 0 10 -0.5t10 -2t11 -3.5t11.5 -4t11.5 -5t12 -6.5t11 -7.5q23 -14 38 -31.5
t19.5 -28.5t1.5 -15q-4 -3 -15 -3q-35 0 -77 28q-36 24 -52 52q-3 4 -4.5 8t-2 6.5t-1 4.5t0 3t0.5 2zM392 -86h-152v485h152v-485zM392 459h-212v61h212v-61zM573 -86h-121v606h121v-606zM786 -86h-152v485h152v-485zM846 459h-212v61h212v-61z" />
    <glyph glyph-name="uniE643" unicode="&#xe643;" 
d="M556 506v-32q2 16 0 32zM952 716q-35 43 -113 43q-27 0 -57 -6t-60 -16.5t-60.5 -27t-57.5 -36.5q-51 -39 -80 -83q-28 44 -79 82q-27 21 -57 37.5t-60.5 27t-60 16.5t-56.5 6q-78 0 -113 -43q-41 -56 0 -145t135 -160q30 -23 60 -38.5t57.5 -22.5t52.5 -7q51 0 89 26
v-496h64v498q39 -27 90 -27q82 0 171 67q61 47 102.5 104.5t50.5 110t-18 90.5zM494 512h-2v-89q-11 -13 -24.5 -22t-30 -13.5t-34.5 -4.5q-33 0 -70.5 15t-75.5 44q-29 22 -53.5 48t-43.5 53q-9 13 -16 26t-12.5 25t-9 24t-4.5 22q-4 32 11 51q23 28 82 28q50 0 106 -21
t104 -57q45 -35 70 -73q7 -10 12 -21q-7 -17 -9 -35zM932 641q-5 -44 -42 -97q-12 -18 -27.5 -35.5t-33 -34t-36.5 -31.5q-79 -59 -147 -59q-56 0 -90 41v81q0 3 -1 6q-2 18 -9 35q3 6 6 11t6 11q13 19 30.5 37t40.5 35q47 36 103.5 57t106.5 21q59 0 82 -28q15 -19 11 -50z
M556 512v-6q0 3 -1 6h1z" />
    <glyph glyph-name="uniE644" unicode="&#xe644;" 
d="M883 -38.5q0 -37.5 -26 -64t-63 -26.5q-24 0 -45 12.5t-33 33t-12 44.5q0 38 26.5 64t63.5 26t63 -26t26 -63.5zM442 -38.5q0 -37.5 -26.5 -64t-63.5 -26.5q-24 0 -44.5 12.5t-32.5 33t-12 44.5q0 38 26 64t63 26t63.5 -26t26.5 -63.5zM359 213l33 58h352q20 0 37 11.5
t25 29.5l165 292q2 8 2 15q0 24 -16.5 40.5t-39.5 16.5h-646l-42 89v1h-151v-96h99l152 -329l-66 -115q-11 -12 -11 -45q0 -38 26 -64t63 -26h542v90h-503v0q-5 0 -9 1.5t-7 5t-5 7.5t-2 9t2 9v0zM298 606l605 1l-148 -261l-340 -1z" />
    <glyph glyph-name="uniE645" unicode="&#xe645;" 
d="M788 191q10 0 20 -2t19 -6t17 -9.5t14.5 -13t12 -16t8.5 -17.5q3 -8 4 -16t1 -16q0 -40 -28 -68.5t-68 -28.5q-20 0 -38.5 8t-32 23t-20.5 34l-5 15v17q0 16 5 32q7 19 20.5 33.5t32 22.5t38.5 8zM234 191q30 0 55.5 -17.5t35.5 -46.5l2 -8l2 -8q1 -4 1 -8v-8v-16l-5 -15
q-4 -12 -10.5 -22t-15.5 -18t-19 -14t-22 -9t-24 -3q-40 0 -68.5 28.5t-28.5 68.5q0 16 6 32q6 19 20 33.5t32.5 22.5t38.5 8zM788 232q-44 0 -79.5 -25.5t-50.5 -66.5q-7 -22 -7 -45h-280q0 12 -2 23t-6 22q-14 41 -49.5 66.5t-80 25.5t-80 -25.5t-49.5 -66.5
q-8 -22 -8 -45q0 -57 40.5 -97.5t97.5 -40.5q45 0 80.5 26t49.5 67v-1h294q15 -41 50.5 -66.5t79.5 -25.5q57 0 97 40.5t40 97.5v9q0 5 -0.5 9.5t-1.5 9t-2.5 9t-2.5 8.5q-6 16 -15.5 30t-21.5 25.5t-26.5 19.5t-31.5 12.5t-35 4.5zM1007 140h-45q-19 61 -68 99.5t-110 38.5
q-31 0 -59.5 -10.5t-51.5 -28.5t-40.5 -43.5t-27.5 -55.5h-44v1h-104v-1h-44q-20 61 -69 99.5t-110 38.5q-87 0 -144 -72q-23 -29 -34 -66h-45q20 71 70.5 120t116.5 61l114 324l13 -5v4h184v-45h-173l-96 -275q32 -1 62 -11.5t55.5 -28.5t46.5 -43t36 -56v1h138
q20 41 51 72t71 48.5t84 17.5q51 0 97 -24t78.5 -65.5t47.5 -94.5zM623 553v-229h321v229h-321zM898 370h-229v137h229v-137z" />
    <glyph glyph-name="uniE646" unicode="&#xe646;" 
d="M679 -143v279l-168 -99zM232 -31l340 184l-496 581l585 -533l297 161l-892 387z" />
    <glyph glyph-name="uniE647" unicode="&#xe647;" horiz-adv-x="1047" 
d="M250 607h23v-455h-23v455zM523 539h23v-250h-23v250zM796 653h23v-387h-23v387zM847 4l-122 -216l-138 216q-18 33 -18 70q0 61 43.5 103.5t104.5 42.5t104.5 -42.5t43.5 -103.5q0 -19 -4.5 -36.5t-13.5 -33.5zM717 144q-19 0 -35 -9.5t-25.5 -25.5t-9.5 -35
q0 -29 20.5 -49.5t49.5 -20.5t49 20.5t20 49.5t-20 49.5t-49 20.5zM1015 -41q-41 12 -91 33l-4 2l-2 2q-2 1 -3 2.5t-2 3.5t-2 3.5t-1 4.5v4q0 4 1 7.5t3 6t4.5 4.5t6 3t7.5 1q5 0 24 -8l45 -18v620l-190 110l-337 -128l-226 126l-202 -91v-666l229 103q208 -105 264 -133
q14 -8 12 -26q-1 -9 -6.5 -14t-15.5 -6q-11 0 -23 6q-25 13 -84 43t-106 54l-46 24l-224 -107q-9 -5 -17 -7.5t-14.5 -3t-10.5 2t-4 8.5v750l252 115l232 -126l333 127l230 -138v-660l-3 -21q-8 -20 -29 -13z" />
    <glyph glyph-name="uniE648" unicode="&#xe648;" 
d="M511.5 345q29.5 0 55 14.5t40 39t14.5 53.5q0 44 -32 75t-77.5 31t-77.5 -31t-32 -75q0 -29 14.5 -53.5t40 -39t55 -14.5zM511 812q-104 0 -198.5 -40.5t-163 -109t-109 -163t-40.5 -198.5t40.5 -199t109 -163.5t163 -109t198.5 -40.5t199 40.5t163.5 109t109 163.5
t40.5 199t-40.5 198.5t-109 163t-163.5 109t-199 40.5zM511.5 629q75.5 0 129 -52t53.5 -125q0 -49 -59 -151q-4 -8 -9 -15l-8 -14q-5 -7 -9.5 -14.5t-9 -14t-8.5 -13.5q-11 -16 -21.5 -31.5t-21.5 -30.5q-9 -13 -18.5 -25.5t-13.5 -18.5l-5 -6q-15 20 -37 50q-22 32 -42 62
q-12 18 -23 35.5t-21 35.5q-59 102 -59 151q0 73 53.5 125t129 52zM511 -28q-120 0 -204 38.5t-84 93.5q0 31 16.5 51t50.5 38q13 8 25 10q16 2 26.5 -9t7.5 -25q-3 -13 -36 -31q-29 -15 -29 -35q0 -28 67.5 -51.5t158.5 -23.5q92 0 162.5 23.5t70.5 51.5q0 22 -35 36
q-30 13 -34 30q-3 14 6.5 24.5t24.5 8.5q7 -1 15.5 -4.5t13.5 -5.5q10 -5 18 -10t15.5 -10.5t13 -11t10 -12t7.5 -13.5t4.5 -15t1.5 -17q0 -55 -88 -94q-86 -37 -205 -37z" />
    <glyph glyph-name="uniE649" unicode="&#xe649;" 
d="M973 -68q-1 0 -3 -2l-4 -4l-3 -2q-9 -5 -20 -5t-21 6l-3 1q-26 16 -14 56q3 8 5 21.5t2 24.5q0 54 -38 92t-92 38q-44 0 -79 -28.5t-45 -68.5q-3 -12 -7 -18q-8 -15 -26 -18.5t-34 3.5q-27 12 -27 13q-102 49 -180 136t-129 199v1q-1 3 -2 5t-3 7t-3.5 9t-2.5 9t-1 9v4
q0 16 11 27.5t28 15.5q47 10 78.5 45.5t31.5 83.5q0 35 -17.5 65t-47.5 47.5t-65 17.5q-18 0 -35 -4.5t-31 -13t-26 -20.5t-20.5 -26.5t-13.5 -31.5t-5 -34q0 -2 0.5 -7t0.5 -6q3 -48 9.5 -93t14.5 -75.5t14.5 -49.5t12.5 -30q49 -121 139 -216t208 -150q65 -35 216 -63
q27 -5 52 -3q3 0 10 1l13 3q5 1 11.5 0t12.5 -4l3 -2q16 -10 20 -27.5t-5 -32.5q-4 -6 -12.5 -11.5t-15.5 -8.5q-8 -3 -23 -5t-31 -2q-41 0 -75 7q-285 50 -463.5 244.5t-198.5 484.5q-1 19 -1 48q0 4 1 16l4 29q15 75 75 124t138 49q90 0 153.5 -64t63.5 -154
q0 -68 -38 -123t-99 -79q18 -43 43.5 -82t56.5 -72.5t68 -61.5t78 -49q28 54 80 86.5t114 32.5q90 0 154 -63.5t64 -154.5q0 -60 -26 -96z" />
    <glyph glyph-name="uniE64A" unicode="&#xe64a;" 
d="M955 47q-12 0 -56.5 -16t-70.5 -16q-23 0 -78 16t-80 16q-26 0 -80.5 -16t-79 -16t-79.5 16t-79.5 16t-79.5 -16t-79 -16q-22 0 -68.5 16t-58.5 16v64q11 -1 33.5 -9t47.5 -15.5t46 -7.5q26 0 80.5 16t78.5 16q16 0 38 -5t40.5 -11t41 -11t39.5 -5q20 0 49 8l60 16
q29 8 50 8q24 0 79 -18.5t77 -17.5q10 0 22.5 2.5t24 6.5t23.5 9t22 9t20 6.5t17 2.5q0 -1 -0.5 -31.5t0.5 -32.5zM828 176q-6 0 -14 1t-15.5 2.5t-15.5 3.5l-16 4q-8 2 -16.5 4.5t-16.5 5t-16.5 4.5t-16.5 3.5t-16 2.5t-15 1q-14 0 -31 -3.5t-33 -8t-32 -9.5t-33 -8t-30 -3
q-25 0 -80 16t-79.5 16t-79.5 -16t-79 -16q-18 0 -43.5 8t-49 16t-34.5 8v64q9 -1 54.5 -16.5t72.5 -15.5q26 0 80.5 16t78.5 16t79 -16t80 -16t79.5 16t79.5 16q24 0 79 -18.5t77 -18.5q15 1 34.5 6.5t35.5 12.5t32.5 12.5t26.5 5.5q0 -8 -0.5 -20.5t-0.5 -23t1 -20.5
q-10 0 -66 -19q-37 -13 -61 -13zM733 497l-65 -73q21 -16 50 -38l60 -44q29 -22 50 -38q0 1 -68 16q-77 17 -101 16q-24 1 -51 -4.5t-60 -14t-51 -12.5q-52 -2 -71 7q-46 20 -91 24t-84.5 -4t-89.5 -28q-1 36 0 65h381l159 225h32l191 -161l-46 -42zM479 401
q-12 0 -23.5 5.5t-20.5 14t-14.5 20.5t-5.5 24q0 25 19.5 44.5t44.5 19.5q16 0 30.5 -9t23.5 -24t9 -31q0 -10 -3 -19.5t-9.5 -17.5t-14.5 -14t-17.5 -9.5t-18.5 -3.5z" />
    <glyph glyph-name="uniE64B" unicode="&#xe64b;" 
d="M744.5 375.5q1.5 28.5 2.5 64.5t1.5 66.5t0.5 57.5v42v16v4q0 3 -1.5 10.5t-3.5 15.5t-6 18.5t-10 19.5t-15 18.5t-20.5 16.5t-28 12t-35.5 6q-31 1 -478 1l-1 -891h159v405l319 -3q1 0 11 2.5t28 10.5t34 20.5t29 35.5t14.5 51.5zM549 379h-240v243h240q14 0 25.5 -2
t19.5 -5.5t14.5 -8t10 -8.5t6 -8t3.5 -6l1 -2q-2 -86 0 -162q0 -19 -8 -30t-20 -13.5t-23.5 -2t-20.5 2.5zM829 55l-40 81q-14 41 -40 41h-280q-8 0 -15 -4.5t-9.5 -8t-8 -14.5t-7.5 -14q-7 -16 -40 -81q-14 0 -27 -12.5t-13 -27.5v-121h40v-41q0 2 20 2t40 -1l20 -1v41h280
v-41h80v41h40v121q-1 11 -7.5 20t-15 14t-17.5 6zM429 -66q-9 0 -16.5 3t-12.5 8.5t-8 13t-3 15.5q0 18 11.5 29.5t28.5 11.5t28 -11.5t12 -29.5q1 -15 -11 -27.5t-29 -12.5zM429 55l40 81h280l40 -81h-360zM789 -66q-6 0 -11.5 1.5t-9.5 4t-8 6t-6 8t-3.5 10t-1.5 10.5
q0 18 11 29.5t28.5 11.5t29 -11.5t11.5 -29.5q0 -5 -1.5 -10.5t-4 -10t-6 -8t-8 -6t-9.5 -4t-11 -1.5z" />
    <glyph glyph-name="uniE64C" unicode="&#xe64c;" 
d="M448 101q-27 0 -49.5 13.5t-36 36.5t-13.5 50t13.5 50.5t36 36.5t49.5 13q41 0 70 -29t29 -71q0 -55 -46 -84q-25 -16 -53 -16zM811 101q-41 0 -70 29.5t-29 70.5q0 21 8 39.5t21 32t31.5 21t38.5 7.5q41 0 70 -29t29 -71q0 -10 -2 -20t-5.5 -19t-9 -17t-12.5 -14.5
t-15 -12t-16.5 -9.5t-18.5 -6t-20 -2zM636 350h-342q-59 0 -104 -27.5t-66.5 -69t-24 -90.5t15 -91.5t60.5 -72t103 -32.5l-1 16q-1 33 13.5 55.5t47.5 21.5l190 2q71 5 75 -71l-1 -22h34v14q-1 32 13.5 54t47.5 21l190 2q71 7 74 -70v-119h-324v61h-35v-65h-324v66
q-60 3 -106 28.5t-69 64.5t-33 86t2 93.5t36 86t69 65.5t101 30v43q-2 35 13 59t48 23h68l32 -69l36 70l54 1q13 1 23.5 -0.5t18.5 -6t14 -11.5t9.5 -16t5.5 -19.5t3 -23.5v-50h32l-1 41q0 18 3 33t9.5 27.5t19 20t30.5 6.5l67 1l33 -75l35 76l54 1q26 3 42.5 -7.5t24 -29
t8.5 -45.5l-1 -86h-323zM811 535q-41 0 -70 29.5t-29 71t29 71t70 29.5t70 -29.5t29 -71.5q0 -20 -8 -38.5t-21 -32t-31.5 -21.5t-38.5 -8zM448 535q-41 0 -70 29.5t-29 71t29 71t70 29.5t70 -29.5t29 -71.5q0 -54 -46 -84q-25 -15 -53 -16z" />
    <glyph glyph-name="uniE64D" unicode="&#xe64d;" 
d="M713 -152h-32q-6 1 -13.5 6t-13 12.5t-5.5 13.5v385q-23 2 -42 22t-21 42v353q0 24 20 44t43 20h5h4h4h4h3h4h4h4q22 -1 42.5 -20.5t20.5 -43.5v-802q0 -4 -1.5 -8.5t-5 -8.5t-7.5 -7.5t-8.5 -5.5t-8.5 -2zM459 361h-32v-481q1 -7 -4 -14.5t-12.5 -12.5t-14.5 -5h-32
q-11 1 -21 11.5t-11 20.5v481h-31q-21 3 -26.5 9t-5.5 24v352h32q-1 -1 -1 -48v-104q0 -57 1 -72q-1 -8 6.5 -12.5t16 -1.5t8.5 14v224h32v-240q0 -5 2 -8.5t5.5 -5.5t8.5 -2q6 0 11 4.5t5 11.5v240h31v-224q1 -16 17 -15q15 2 15 15v224h32l-1 -340q2 -44 -31 -45z" />
    <glyph glyph-name="uniE64E" unicode="&#xe64e;" 
d="M91 166q-7 13 -20.5 5t-5.5 -21l92 -161q8 -14 21 -6t6 21zM794 612q-10 17 -28 22t-34.5 -5t-21.5 -28.5t4 -35.5l39 -67l-532 -311l-39 68q-9 16 -27.5 21t-35 -4.5t-21.5 -28t5 -35.5l122 -215q7 -11 17.5 -17.5t22.5 -6t23 6.5q17 9 22 28t-5 35l-38 68l532 310
l38 -67q10 -17 28 -22t34.5 5t21.5 28.5t-4 35.5zM955 455l-92 161q-8 14 -21.5 6t-5.5 -21l92 -162q3 -5 9.5 -7t11.5 1q13 8 6 22z" />
    <glyph glyph-name="uniE64F" unicode="&#xe64f;" 
d="M65 750v-892h892v892h-892zM908 -92h-793v570h793v-570zM908 527h-793v174h793v-174zM388 626h-50v-49h50v49zM685 626h-50v-49h50v49zM388 255v-248h49v347h-49v-25q-2 -13 -5.5 -21t-6 -12.5t-10.5 -6.5t-11.5 -2.5t-17.5 -0.5t-21 -1h-7l4 -30h75zM622 48
q-29 0 -48 19t-19 49l-1 8h-43l1 -9q0 -32 14 -56.5t38.5 -38.5t55.5 -14q13 0 26 3.5t24.5 9t21.5 13.5t17.5 18.5t13 22.5t8.5 25.5t3 27.5q0 54 -30.5 87.5t-80.5 33.5q-29 0 -54 -18l15 81l126 -6v50l-158 -1l-33 -186h37l3 4q21 35 61 35q31 0 51 -22t20 -55t-18.5 -57
t-50.5 -24z" />
    <glyph glyph-name="uniE650" unicode="&#xe650;" 
d="M512 535q38 -1 65 -27l369 -369q12 -12 12 -28.5t-12 -28.5t-28.5 -12t-28.5 12l-369 369q-8 8 -16 0l-369 -369q-12 -12 -28.5 -12t-28.5 12t-12 28.5t12 28.5l369 369q27 27 65 27zM512 535z" />
    <glyph glyph-name="uniE651" unicode="&#xe651;" 
d="M769 270h-66l1 -1q5 -12 9.5 -22t8.5 -19.5t6 -17.5l41 26v34zM129 270h-65v-34l40 -26q8 22 25 60zM897 531h-32l-32 -65l-32 65h-32q-28 0 -42 -8.5t-20 -27.5l-32 -84l-34 -10q0 -1 -112 -1h-225l-112 1q-5 -11 -29 -60t-34 -71l-21 -63l-4 3q-8 -24 -8 -36v-97h-32
v-65h96v-98h96v65q15 0 22.5 8t9.5 25h256q3 -17 10 -25t23 -8v-65h96v98h96v-65q3 -12 13 -20t21.5 -7t17.5 13v308q0 9 11 9t13 -8v-310q7 -18 30.5 -17t28.5 18v526q1 3 12.5 6.5t12.5 0.5v-114v-113q5 -13 16 -9.5t16 18.5v250q-1 15 -8.5 23t-20.5 9.5t-35 0.5z
M208 368l368 1q0 -11 7 -19.5t19 -5.5l29 8l42 -146q-37 2 -122.5 -1.5t-137.5 -0.5q-56 2 -253 2q0 1 12 41.5t24 80.5zM577 174v-33h-321v33h321zM128 77v64h96v-64h-96zM247.5 -16q-30.5 0 -30.5 30q0 12 14 6q18 -8 25 -8q9 0 20 10q2 -5 2 -8q0 -30 -30.5 -30zM256 77
v32h321v-32h-321zM584.5 -16q-30.5 0 -30.5 30l2 8l2 -1q9 -9 19 -9q5 0 11 2t10.5 4.5t8.5 3.5t6 -0.5t2 -7.5q0 -30 -30.5 -30zM705 77h-96v64h96v-64zM769 77h-32v97q0 6 -2 15t-7 21l-3 -3l-21 62q-5 10 -10.5 22t-9.5 19.5t-12.5 25.5t-11.5 24l52 14l38 85q1 3 9 6
t10 1v-389zM833 563q25 0 44.5 20.5t19.5 44.5t-20 44.5t-44 20.5q-12 0 -23.5 -5.5t-20.5 -14.5t-14.5 -21t-5.5 -24q0 -25 19.5 -45t44.5 -20z" />
    <glyph glyph-name="uniE652" unicode="&#xe652;" 
d="M728 -103q-68 0 -171 66t-194.5 158t-157.5 195t-66 171q0 82 77 186l3 3q17 23 46 23q27 0 44 -21l148 -178q15 -15 15 -38q0 -24 -17 -41l-28 -28q-9 -9 -9 -22q0 -12 9 -21l175 -175q8 -9 21 -9t21 9l29 29q16 15 38 15.5t38 -12.5l172 -142q20 -17 20 -43
q0 -13 -5.5 -24.5t-15.5 -20.5q-1 -1 -2 -1.5t-3 -2t-3 -2.5q-3 -2 -5 -3q-23 -18 -61 -39q-49 -27 -107 -32h-6h-3h-2v0zM265 667q-13 0 -21 -10l-3 -3q-13 -19 -24.5 -37t-22.5 -40.5t-17 -45.5t-6 -44q0 -49 41 -122t107 -147.5t140 -140t147 -107t122 -41.5h4h5
q28 2 51.5 10t41.5 18q37 20 58 36q1 1 3 2l2 2q2 1 4 2.5t3 2.5q10 8 10 20q0 4 -1 7.5t-3 6.5t-5 5l-172 142q-7 6 -17 5.5t-17 -7.5l-4 -4l-7 -7l-8 -8q-4 -4 -6 -7l-3 -3q-18 -17 -44 -17t-44 17l-175 176q-9 8 -13.5 19.5t-4.5 23.5q0 5 1 10t2.5 9.5t3.5 9t5 8.5t6 7
l29 29q2 2 3.5 5t2.5 6t1 7q0 10 -7 17l-148 179l-3 4l-4 2l-4 2q-2 1 -4 1h-5v0zM728 -117q-75 0 -178 67t-197 161q-34 35 -66 71.5t-62 77.5t-52 79.5t-35 77t-13 70.5q0 86 80 194l2 4q22 29 58 29q16 0 30.5 -7t24.5 -19l148 -178q18 -20 18 -48q0 -30 -21 -51l-28 -28
q-5 -5 -5 -12q1 -6 5 -11l175 -175q3 -3 7 -4t8 0t7 4l29 29q19 18 47.5 19.5t48.5 -15.5l172 -141q25 -22 25 -55q0 -16 -7 -30.5t-20 -25.5l-13 -9q-12 -9 -27.5 -19t-35.5 -21q-52 -29 -113 -34h-12zM265 685q-22 0 -35 -18l-2 -3q-32 -42 -53.5 -88t-21.5 -89
q0 -62 60 -158.5t160 -197t196.5 -160.5t158.5 -60l10 1q55 4 101 30q38 21 60 38l11 7q17 14 17 35q0 20 -15 33l-172 141q-11 10 -28.5 9t-28.5 -11q-1 -2 -8 -9l-13 -13l-7 -7q-8 -8 -20 -11t-23.5 0t-19.5 10l-176 176q-4 4 -7 9t-4.5 11t-1.5 11q0 9 3.5 17.5t9.5 14.5
l29 28q6 6 9 14t3 17q0 17 -11 29l-148 178q-6 8 -15 12t-18 4zM728 -86q-63 0 -163 65t-189.5 154.5t-154.5 189.5t-65 164q0 76 74 175l3 4q7 9 19 13t24 1t20 -13l148 -178q10 -12 10 -27q0 -17 -11 -28l-29 -29q-6 -7 -10 -15.5t-4 -18.5q0 -19 14 -33l176 -176
q8 -8 20.5 -11t25 0t21.5 11l28 29q7 7 17 9.5t19.5 1t16.5 -7.5l172 -142q7 -5 10.5 -13t3.5 -17t-4 -17t-11 -14q-1 -1 -3 -2.5t-5 -3.5l-4 -3q-21 -16 -60 -37q-46 -26 -99 -30zM265 653q-6 0 -10 -5l-2 -3q-68 -92 -68 -158q0 -57 63 -151.5t149 -180.5t180 -149
t151 -63h9q11 1 22 3t19.5 5t17.5 6t15 6t12 7q37 20 57 35l5 3q5 4 6 5q4 4 4 9t-3 8l-172 142q-1 1 -3 1.5t-4.5 0.5t-4.5 -1t-3 -2l-28 -29q-21 -21 -54 -21t-54 21l-175 176q-7 7 -12 15.5t-7.5 18t-2.5 19.5q0 32 22 54l29 29q3 3 3 8q0 2 -1 4t-3 4l-148 179
q-4 4 -9 4zM265 653z" />
    <glyph glyph-name="uniE653" unicode="&#xe653;" 
d="M510 576q-57 0 -97 -40t-40 -97t40 -97t97 -40q22 0 43 7t38 19.5t29.5 29.5t19.5 38t7 43q0 57 -40 97t-97 40zM510 352q-18 0 -34 7t-28 18.5t-18.5 27.5t-6.5 34t6.5 34t18.5 27.5t28 18.5t34 7q24 0 44 -11.5t31.5 -31.5t11.5 -44q0 -36 -25.5 -61.5t-61.5 -25.5z
M510 751q-92 0 -169.5 -45t-122.5 -122.5t-45 -169.5q0 -52 33.5 -129t81 -150t95.5 -137.5t81 -105t33 -39.5h25q7 8 19 23t45.5 60t64 88.5t68 102t64.5 108t45.5 98.5t18.5 81q0 69 -27 131t-72 107t-107.5 72t-130.5 27zM521 -72h-22q-3 4 -9 11t-25 31t-37.5 47.5
t-43.5 58.5t-46 67.5t-43 70.5t-37.5 71.5t-25 66.5t-9.5 59q0 120 84 205t203 85q78 0 144 -39t104.5 -105.5t38.5 -145.5q0 -38 -30 -103.5t-66.5 -124t-84 -125.5t-66 -91.5t-29.5 -38.5z" />
    <glyph glyph-name="uniE654" unicode="&#xe654;" horiz-adv-x="1044" 
d="M456 345h14q-1 30 -0.5 55t4 44.5t14.5 34.5t31 25q31 16 54 11q24 -6 39 -16t23 -24.5t11.5 -33.5t3.5 -43v-53h13v13v41q0 19 2.5 35t7.5 28.5t15 23t25 18.5q5 3 10 5t13 4.5t15 2.5t16 -1q23 -6 38.5 -16t23 -24t11 -33.5t3.5 -43.5v-53h18v31q0 9 0.5 28t2.5 29
t6 22t11 21q26 34 73.5 32t71.5 -36q7 -10 11 -24t5 -33.5t1.5 -34t0 -38.5t-0.5 -35v-344v-23v-22q0 -6 -0.5 -20t-1.5 -19.5t-2.5 -16.5t-4 -16.5t-6 -14t-8.5 -13t-11.5 -10t-13.5 -9.5q-6 -3 -13.5 -5t-14.5 -3t-17 -1h-18h-18h-18h-203h-288q-6 0 -39 -1.5t-54.5 -0.5
t-33.5 6q-13 6 -24.5 15.5t-20 22.5t-15 24.5t-15 27.5t-13.5 25q-22 35 -62 106t-61 106q-6 9 -13 21t-14 24.5t-12 21.5q-21 34 -24 45q-9 28 2 54t32.5 40t48.5 18t52 -12q8 -5 15 -13t11 -14t10.5 -17.5t9.5 -16.5q9 -14 25.5 -43.5t25.5 -44.5q3 -5 13 -19.5
t16.5 -26.5t9.5 -21h2v616q2 3 3 11t3 11q12 28 38 45q12 7 24.5 10t24 2t23 -5t21 -10t17.5 -14t13.5 -17t8.5 -19q4 -12 5 -34t-0.5 -54t-1.5 -40v-274z" />
    <glyph glyph-name="uniE655" unicode="&#xe655;" 
d="M88 242h145q10 0 17 7t7 17t-7 17t-17 7h-145q-7 0 -12.5 -3t-9 -8.5t-3.5 -12.5q0 -10 7.5 -17t17.5 -7zM282 96h-194q-10 0 -17.5 -7t-7.5 -17q0 -24 25 -24h194q10 0 17 7t7 17q0 7 -3.5 12.5t-9 8.5t-11.5 3zM88 630h679q5 0 9.5 2t7.5 5t5 7.5t2 9.5t-2 9.5t-5 8
t-7.5 5.5t-9.5 2h-679q-7 0 -12.5 -3.5t-9 -9t-3.5 -12.5q0 -5 2 -9.5t5.5 -7.5t8 -5t9.5 -2zM646 557q-52 0 -100 -16t-87 -45t-68 -67.5t-45 -87t-16 -99.5q0 -86 42.5 -158.5t115 -114.5t158.5 -42q130 0 222.5 92t92.5 223t-92.5 223t-222.5 92zM645.5 -23
q-109.5 0 -187 77.5t-77.5 187.5q0 72 35.5 133t96.5 96.5t133 35.5q109 0 186.5 -77.5t77.5 -187.5t-77.5 -187.5t-187 -77.5zM282 485h-194q-10 0 -17.5 -7.5t-7.5 -17.5q0 -4 1.5 -7.5t3.5 -6.5t5 -5.5t7 -3.5t8 -1h194q10 0 17 7t7 17t-7 17.5t-17 7.5zM791 266h-121
v122q0 4 -2 8.5t-5 8t-7.5 5.5t-9.5 2q-10 0 -17.5 -7t-7.5 -17v-122h-121q-3 0 -6.5 -1t-6 -2.5t-4.5 -3.5t-3.5 -4.5t-2.5 -6t-1 -6.5q0 -5 2 -9.5t5 -7.5t7.5 -5t9.5 -2h121v-122q0 -10 7.5 -17t17.5 -7t17 7t7 17v122h121q5 0 9.5 2t8 5t5 7.5t1.5 9.5q0 10 -7 17t-17 7
z" />
    <glyph glyph-name="uniE656" unicode="&#xe656;" 
d="M897 750h-66v-56q0 -26 -19 -45t-45.5 -19t-45.5 19t-19 45v56h-385v-57q0 -26 -19 -45t-45.5 -19t-45.5 19t-19 45v57h-61q-26 0 -44 -18.5t-18 -43.5v-771q0 -25 18 -43.5t44 -18.5h770q10 0 19.5 3.5t17 9t13.5 13t9 17t3 19.5v771q0 17 -8.5 31t-22.5 22.5t-31 8.5z
M830 -25h-642v514h642v-514z" />
    <glyph glyph-name="uniE657" unicode="&#xe657;" 
d="M693 504h-345q-6 0 -10.5 -2.5t-7.5 -7.5t-3 -10t3 -10l2 -7l116 -147v-225q0 -6 6 -10.5t14 -4.5q6 0 10.5 2t7.5 5.5t3 7.5v232q0 5 -4 9l-3 6l-95 121h267l-96 -121l-2 -4q-5 -3 -5 -7v-182q0 -4 6 -7.5t14 -3.5q6 0 10.5 1.5t7 4t2.5 5.5v169l118 149q2 3 2 7
q2 5 2 10t-2.5 10t-7 7.5t-10.5 2.5zM510 748q-73 0 -141 -22.5t-123 -64t-96.5 -96.5t-64 -123t-22.5 -141t22.5 -141t64 -123t96.5 -96.5t123 -64t141 -22.5q91 0 174 35.5t142.5 95t95 142.5t35.5 174q0 52 -11.5 102t-33.5 94t-52.5 83t-69.5 69.5t-83 52.5t-94.5 34
t-102.5 12zM510 -105q-110 0 -203.5 54t-148 148t-54.5 204t54.5 203.5t148 148t203.5 54.5q169 0 288 -119t119 -287q0 -66 -20.5 -128t-58.5 -112t-88 -87.5t-112 -58t-128 -20.5z" />
    <glyph glyph-name="uniE658" unicode="&#xe658;" 
d="M512 748q-103 0 -175.5 -70.5t-72.5 -170.5q0 -109 200 -388q48 -67 48 -65q10 13 26.5 35.5t59.5 85t75.5 117t59 116.5t26.5 99q0 40 -12.5 76.5t-35 66t-53 52t-68.5 34.5t-78 12zM809 152q-13 16 -33 16q-18 0 -31 -13t-13 -31q0 -12 6 -22.5t16 -16.5t22 -6v0
q14 -6 23.5 -13.5t15 -15t5.5 -15.5q0 -37 -90.5 -63.5t-218 -26.5t-218 26.5t-90.5 63.5q0 23 44 44v0q18 0 31 13t13 31.5t-13 31.5t-31 13q-6 0 -12.5 -2t-11.5 -5.5t-9 -8.5q-23 -12 -41.5 -25.5t-31 -28t-19.5 -31t-7 -32.5q0 -30 20 -57t56.5 -49t85.5 -38.5
t109.5 -25.5t125.5 -9q107 0 198.5 24t144.5 65t53 90q0 33 -26 63t-73 54zM363 507q0 30 11.5 56.5t31.5 46t47.5 31t58.5 11.5q73 0 118 -57q30 -39 30 -88q0 -60 -43.5 -102t-105 -42t-105 42t-43.5 102z" />
    <glyph glyph-name="uniE659" unicode="&#xe659;" 
d="M463 510q-6 6 -14.5 6t-14.5 -6l-101 -102q-6 -6 -6 -14.5t6 -14.5q2 -2 5 -3.5t6 -2t6 0t6 2t6 3.5l67 67v-351q0 -6 2.5 -10.5t7.5 -7.5t10 -3q9 0 15 6t6 15v390v3q0 2 -1 3q2 11 -6 19zM511 753q-61 0 -120 -16.5t-108.5 -45.5t-91 -71t-71 -91.5t-45.5 -108
t-16 -120.5q0 -92 36 -175.5t96.5 -144t144 -96.5t175.5 -36t176 36t144.5 96.5t96 144t35.5 175.5t-35.5 176t-96 144.5t-144.5 96.5t-176 36zM511 -111q-112 0 -206.5 55t-149.5 150t-55 206.5t55 206.5t149.5 150t206.5 55t206.5 -55t149.5 -150t55 -206.5t-55 -206.5
t-149.5 -150t-206.5 -55zM681 222l-67 -67v351q0 9 -6 15t-15 6q-5 0 -10 -3t-7.5 -7.5t-2.5 -10.5v-391v-3q0 -1 1 -2q-2 -11 5 -19q3 -3 7 -4.5t8 -1.5t7.5 1.5t6.5 4.5l102 102q6 6 6 14.5t-6 14.5t-14.5 6t-14.5 -6z" />
    <glyph glyph-name="uniE65A" unicode="&#xe65a;" 
d="M731 492l-114 32q-4 1 -8 1q-8 0 -15 -5q-3 2 -5.5 3t-5 1.5t-5.5 0.5q-4 0 -8 -1l-114 -32q-2 0 -3.5 -1t-3.5 -2q-4 2 -8 3l-113 32q-5 1 -9 1q-5 0 -9.5 -2t-8.5 -5t-7 -7t-4.5 -8.5t-1.5 -9.5v-331q0 -7 3 -13t8.5 -10.5t11.5 -6.5l114 -31q4 -1 8 -1t8 1t8 3
q7 -4 15 -4q4 0 8 1l114 31l3 2q1 0 2.5 0.5t2.5 0.5t2 -0.5t2.5 -1t2.5 -1.5l114 -31q4 -1 8 -1q11 0 19 6q12 10 12 25v331q0 7 -3 13.5t-8 10.5t-12 6zM430 140l-101 20v324l101 -20v-324zM572 160l-101 -20v61h1l4 1.5t10 4.5q7 3 4 10t-10 4q-1 -1 -4.5 -0.5t-4.5 0.5
v243l101 20v-324zM714 140l-102 20l-3 222q4 0 8 -1q3 -1 6 0.5t4 4.5q0 3 -0.5 4.5t-2 3t-3.5 2.5q-6 2 -12 2l3 86l102 -20v-324zM540 305h3q1 0 2.5 0.5t2.5 1.5t2 3q4 11 8 19.5t8 15.5q2 7 -3 11q-7 4 -11 -3q-1 -3 -2.5 -5.5t-3 -5.5t-2.5 -6t-2.5 -6t-3 -7t-2.5 -7
q-3 -8 4 -11zM406 228q2 -1 5 -1l6 2q5 6 -1 11q-13 12 -27 28q-4 6 -10 1q-3 -2 -3 -5.5t2 -5.5q14 -18 28 -30zM354 291q3 -3 7 -4q1 0 2 0.5t2 0.5q6 4 2 11q-2 4 -4 8.5t-4 7.5q-3 8 -10 4.5t-4 -10.5zM508 233q2 -2 5 -2q4 0 6 4q7 11 17 38q3 7 -4.5 10t-9.5 -5
q-2 -5 -4 -9.5t-4 -9.5t-4 -8.5t-4 -6.5t-1 -6t3 -5zM511.5 748q-90.5 0 -173 -35.5t-142.5 -95t-95 -142t-35 -173t35 -173t95 -142.5t142.5 -95t173 -35t173 35t142 95t95 142.5t35.5 173t-35.5 173t-95 142t-142 95t-173 35.5zM511 -103q-82 0 -157 32t-129.5 86.5
t-86.5 129.5t-32 157q0 110 54.5 203.5t147.5 147.5t203 54t203.5 -54t147.5 -147.5t54 -203.5t-54 -203t-147.5 -147.5t-203.5 -54.5zM637 317q1 -1 2 -1.5t2.5 -0.5t3 1t3.5 2l20 22l20 -22q3 -3 6 -3q1 0 2.5 0.5t2.5 1.5q6 6 0 11l-21 23l21 23q6 6 0.5 11t-11.5 -1
l-20 -21l-10 10v1l-10 10q-6 6 -11.5 0.5t-0.5 -10.5l21 -23l-21 -23q-1 -1 -1.5 -3t0 -4t2.5 -4z" />
    <glyph glyph-name="uniE65B" unicode="&#xe65b;" 
d="M141 -132h743v50h-743v-50zM67 735v-718h891v718h-891zM909 66h-793v619h793v-619zM469 148q7 -7 17 -7t17 7l158 157l83 -83q7 -7 17 -7t17 7q4 4 6 10.5t0 12.5t-6 10l-94 94q-2 5 -5 8q-12 12 -27 5q-5 -2 -9 -6l-1 -2q0 -1 -1 -1l-172 -172q-4 -4 -6 -10.5t0 -12.5
t6 -10zM413 388q41 0 70 29t29 70t-29 70t-70 29t-70 -29t-29 -70q0 -20 8 -38.5t21.5 -31.5t31.5 -21t38 -8zM413 536q21 0 35.5 -14t14.5 -35q0 -10 -4 -19t-10.5 -15.5t-16 -10.5t-19.5 -4q-20 0 -34.5 14.5t-14.5 34.5q0 14 6.5 25t18 17.5t24.5 6.5zM280 148l108 108
l34 -34q4 -4 8.5 -5.5t9 -1.5t8.5 1.5t8 5.5q7 7 7 16.5t-7 16.5l-44 45q-2 4 -6 8q-5 5 -12.5 6t-13.5 -2q-6 -2 -9 -5q-1 -1 -1 -2l-1 -1l-123 -123q-7 -7 -7 -16.5t7 -16.5q5 -5 11 -6.5t12 0t11 6.5z" />
    <glyph glyph-name="uniE65C" unicode="&#xe65c;" 
d="M67 -132h371v371h-371v-371zM116 190h272v-272h-272v272zM537 -58h420v50h-420v-50zM67 363h371v371h-371v-371zM116 685h272v-273h-272v273zM537 660v-50h420v50h-420zM537 115h420v50h-420v-50zM537 437h420v50h-420v-50z" />
    <glyph glyph-name="uniE65D" unicode="&#xe65d;" 
d="M914 747h-805q-18 0 -31 -11.5t-13 -27.5q0 -8 3.5 -15t9.5 -12.5t14 -8.5t17 -3h805q19 0 32 11.5t13 27.5t-13 27.5t-32 11.5zM892 262l-338 294q-7 6 -19 6.5t-23 -4.5q-26 12 -43 -2l-337 -294q-10 -8 -8 -22.5t15 -25.5t29.5 -13t26.5 7l272 237v-553
q0 -16 13 -27.5t31.5 -11.5t31.5 11.5t13 27.5v553l273 -237q10 -9 26 -7t29 13t15.5 25.5t-7.5 22.5z" />
    <glyph glyph-name="uniE65E" unicode="&#xe65e;" 
d="M382 485v-433h72v433h-72zM887 629h-213l-40 40q0 5 -2 10t-5.5 9t-8 7t-9.5 4.5t-11 1.5h-144q-14 0 -24 -9t-12 -23l-40 -40h-212q-10 0 -18.5 -4.5t-13 -13t-4.5 -18.5t4.5 -18t13 -13t18.5 -5h214q18 -10 27 -1l73 73h92l73 -73q9 -9 27 1h215q15 0 25.5 10.5
t10.5 25.5t-10.5 25.5t-25.5 10.5zM779 -20h-505v505h-72v-505q0 -30 21 -51t51 -21h505q30 0 51 21t21 51v505h-72v-505zM598 485v-433h73v433h-73z" />
    <glyph glyph-name="uniE65F" unicode="&#xe65f;" 
d="M946 717q0 12 -8.5 20.5t-20.5 8.5h-811q-8 0 -15 -3.5t-10.5 -10.5t-3.5 -15l3 -13q0 -6 3 -10l282 -355v-466q0 -8 8.5 -14.5t20.5 -6.5t20.5 6.5t8.5 14.5v476q0 2 -0.5 3.5t-1.5 3.5l-2 2q-1 2 -2 3q0 2 -1 3v4q-1 1 -2 3l-252 318h699l-252 -318q-2 -3 -3 -6
q-8 -4 -8 -11v-375q0 -3 2.5 -6t6.5 -5t9 -3t11 -1q12 0 20.5 4.5t8.5 10.5v358l283 357q2 2 3 4.5t1 5.5q3 6 3 13z" />
    <glyph glyph-name="uniE660" unicode="&#xe660;" 
d="M849 -43q0 -4 -1 -7.5t-3.5 -5.5t-6 -3.5t-7.5 -1.5h-639q-8 0 -13 5t-5 13v237h-37v-237q0 -15 7.5 -27.5t20 -20t27.5 -7.5h639q23 0 39 16t16 39v237h-37v-237zM935 413q3 0 6 1l-146 292h-567l-146 -292q3 -1 6 -1q-6 -7 -10.5 -14.5t-7.5 -15.5t-4.5 -16.5
t-1.5 -16.5q0 -33 21 -60t56.5 -43t77.5 -16q15 0 28.5 2t26.5 5.5t24.5 9t21.5 12t18.5 14.5t15.5 17t11 19q17 -35 57 -57t89.5 -22t89.5 22t57 57q16 -35 56 -57t90 -22q64 0 109.5 34.5t45.5 84.5q0 17 -6 33t-18 30zM831 395h-639q-8 0 -13 5.5t-5 13t5 13t13 5.5h639
q5 0 9.5 -2.5t6.5 -6.5t2 -9q0 -8 -5 -13.5t-13 -5.5z" />
    <glyph glyph-name="uniE661" unicode="&#xe661;" 
d="M512 748q-91 0 -174 -35.5t-143 -95.5t-95.5 -143t-35.5 -174t35.5 -174t95.5 -143t143 -95.5t174 -35.5t174 35.5t143 95.5t95.5 143t35.5 174q0 53 -12 103t-34 94t-52.5 83t-69.5 69.5t-83 53t-94.5 34t-102.5 11.5zM681 174q4 -5 6.5 -10.5t2.5 -11t-2.5 -11
t-6.5 -10.5q-9 -8 -21.5 -8t-20.5 8l-127 127l-127 -127q-5 -5 -13 -7.5t-15.5 0t-13.5 7.5q-9 9 -9 21.5t9 21.5l127 126l-127 127q-9 9 -9 21t9 21t21 9t21 -9l127 -127l127 127q5 6 13 8t15.5 0t13.5 -8t8 -13.5t0 -15t-8 -13.5l-127 -127z" />
    <glyph glyph-name="uniE662" unicode="&#xe662;" 
d="M855 387q-66 -1 -157 -1q6 21 10.5 46.5t8.5 69.5t4 97q0 9 -2 22.5t-9 34t-18.5 37t-33 28.5t-49.5 12q-23 0 -40.5 -6.5t-28 -20.5t-17.5 -29t-10 -37t-3.5 -39t-0.5 -41q0 -28 -19.5 -55.5t-50.5 -49.5t-55 -35.5t-49 -24.5v-42q22 6 44 15t54 28.5t56 42.5t41 60
t17 80q0 62 18 90t45 28t49.5 -27t22.5 -81q0 -72 -9.5 -132.5t-19.5 -84.5l-10 -24h39h171q25 0 45 -20.5t15 -42.5l-60 -317q-16 -63 -60 -63h-458v-39h445q35 0 56 10.5t35 35.5t24 70l57 289q8 52 -17 84t-80 32zM162 309v-366q0 -32 22.5 -54.5t54.5 -22.5h38v521h-38
q-32 0 -54.5 -23t-22.5 -55z" />
    <glyph glyph-name="uniE663" unicode="&#xe663;" 
d="M942 529q-4 8 -9 16t-9 12l-3 4l-5 -5q-3 -3 -12 -11.5t-16.5 -16.5t-17.5 -18l-15 -15q-43 -42 -95 -50.5t-83.5 22.5t-23 83.5t51.5 95.5l65 65q-1 2 -3.5 4.5t-11 8t-17.5 8.5q-70 24 -143.5 9t-124.5 -67q-49 -49 -65.5 -117t1.5 -134l-293 -294q-47 -47 -47 -113
t46.5 -112.5t112.5 -46.5t113 46l294 294q66 -18 134.5 -1.5t116.5 64.5q52 52 67 125.5t-8 143.5zM846 298q-44 -44 -106.5 -54.5t-122.5 13.5l-16 -15l-67 66l67 -66l-300 -301q-32 -31 -76 -31t-75 31t-31 75t31 75l301 301l16 16q-12 30 -15.5 61t1.5 61t18.5 57.5
t35.5 48.5q68 68 170 56q-1 -2 -3 -3.5t-4 -2.5t-3 -3q-58 -58 -66.5 -132.5t38.5 -121t121 -38.5t133 67q1 2 4 5t4 5q4 -32 -1 -62t-18.5 -58t-35.5 -50z" />
    <glyph glyph-name="uniE664" unicode="&#xe664;" 
d="M616 296q-1 -27 -15 -49.5t-37.5 -35.5t-50.5 -13q-28 0 -51.5 13.5t-37.5 37.5t-14 51.5t14 51.5t37.5 37.5t51.5 13.5q10 0 20 -2l36 37q-13 5 -27 8t-29 3q-61 0 -104.5 -43.5t-43.5 -105t43.5 -105t104.5 -43.5q40 0 74.5 20t54.5 54t20 74q0 19 -5 37zM513 609
q-121 0 -223.5 -41.5t-162 -112.5t-59.5 -154.5t59.5 -154.5t162 -112.5t223.5 -41.5t223.5 41.5t162 112.5t59.5 154q0 63 -35 120t-94.5 98.5t-142 66t-173.5 24.5zM513.5 38q-108.5 0 -200.5 35t-145.5 95.5t-53.5 132t53.5 132t145.5 95.5t200.5 35t200.5 -35
t145.5 -95.5t53.5 -132t-53.5 -132t-145.5 -95.5t-200.5 -35z" />
    <glyph glyph-name="uniE665" unicode="&#xe665;" 
d="M869 503l-771 -216l-28 108q-8 29 7 55t44 34l638 171q14 4 29 1.5t27 -9t21.5 -18t13.5 -25.5zM901 423l58 -214q7 -29 -10 -54t-47 -33l-638 -171q-29 -8 -54.5 5.5t-33.5 42.5l-58 215zM494 200l-110 -29l12 -47l110 30zM635 238l-95 -25l12 -47l95 26zM790 280
l-125 -34l12 -46l126 33zM255 87l110 29l-12 46l-110 -29z" />
    <glyph glyph-name="uniE666" unicode="&#xe666;" horiz-adv-x="1510" 
d="M1197 -56h-923q-14 0 -24 10.5t-10 24.5v584q0 10 4.5 18t12.5 12.5t17 4.5h923q10 0 17.5 -4.5t12.5 -12.5t5 -18v-584q0 -14 -10.5 -24.5t-24.5 -10.5zM279 -16h914v575h-914v-575zM1197 -56h-923q-10 0 -19 6v25l311 323l170 -173l170 173l315 -319l-5 -29
q-8 -6 -19 -6zM588 221l-237 -238h770l-239 236l-121 -124q-10 -10 -25 -10t-26 10zM736 86q-15 0 -26 10l-469 477l13 19q4 3 9.5 5t10.5 2h923q12 0 21 -7l12 -19l-469 -477q-3 -3 -7 -5.5t-9 -3.5t-9 -1zM309 559l427 -432l427 433z" />
    <glyph glyph-name="uniE667" unicode="&#xe667;" 
d="M813 412v-75q0 -19 -4.5 -32t-13.5 -25v-207q0 -31 -23.5 -53t-55.5 -22h-408q-32 0 -55 22t-23 53v207q-19 24 -19 57v6v7v6v8v6v4v38l109 188h383zM267 73q0 -15 12.5 -26.5t28.5 -11.5h408q8 0 15.5 3t13 8t9 12t3.5 15v38h-490v-38zM267 148h490v115q-8 -2 -20 -2
q-26 0 -48.5 13.5t-35.5 35.5q-8 -14 -19 -25t-25 -17.5t-28 -6.5q-21 0 -41 12t-28 30q-8 -18 -28.5 -30t-42.5 -12q-13 0 -27 6t-25 16.5t-19 23.5q-5 -10 -13 -18.5t-17.5 -14.5t-18.5 -9.5t-17 -3.5h-8h-11q-4 0 -9.5 0.5t-8.5 1.5v-115zM247 337q0 -19 17 -28.5
t41 -9.5q21 0 39 12t18 26h18q0 -17 19 -27.5t43 -10.5q21 0 41 12t20 26h18q0 -7 5.5 -14t14 -12t19.5 -8.5t21 -3.5q22 0 42.5 12t20.5 26h18q0 -9 12.5 -18t30 -14.5t32.5 -5.5q39 0 39 38v37h-529v-37zM777 412h-1l-89 151h-350l-88 -151h528v0zM777 412z" />
    <glyph glyph-name="uniE668" unicode="&#xe668;" 
d="M514 -145q-91 0 -174 35.5t-143.5 95.5t-96 143t-35.5 174q0 73 23 141.5t64.5 124t96.5 97t123.5 64t141.5 22.5q91 0 174 -35.5t143.5 -95.5t96 -143.5t35.5 -174.5q0 -52 -12 -102.5t-34 -94.5t-53 -83t-69.5 -70t-83 -53t-95 -33.5t-102.5 -11.5zM514 724
q-114 0 -211 -56.5t-153.5 -153.5t-56.5 -211t56.5 -211t153.5 -153t211 -56t211 56t153.5 153t56.5 211t-56.5 211t-153.5 153.5t-211 56.5zM785 10zM785 -29zM511 276q-48 0 -88.5 23.5t-64.5 63.5t-24 88q0 72 52 123.5t125 51.5q48 0 88.5 -23.5t64 -64t23.5 -87.5
q0 -18 -3.5 -35.5t-10 -33t-16.5 -29.5t-21.5 -26t-26 -21.5t-30 -16t-33 -10t-35.5 -3.5zM511 587q-57 0 -97 -40t-40 -96.5t40 -96t97 -39.5t97 39.5t40 96t-40 96.5t-97 40zM707 4q0 80 -57.5 137t-138.5 57t-138 -56.5t-58 -136.5q-19 13 -37 27q10 87 76.5 146
t156.5 59q97 0 166 -68.5t69 -164.5h-39zM707 4h39v-78h-39v78zM740 100zM740 61zM278 34h39v-109h-39v109z" />
    <glyph glyph-name="uniE669" unicode="&#xe669;" 
d="M674 684q-90 0 -149.5 -25.5t-59.5 -62.5v-164q-25 6 -54 9.5t-60 3.5q-59 0 -107 -11.5t-75 -31.5t-27 -45v-370h4q13 -31 69.5 -51t135.5 -20q89 0 148.5 25.5t59.5 62.5v40q25 -7 54 -10.5t61 -3.5q89 0 148.5 25.5t59.5 62.5v478q0 14 -10 28t-29 24.5t-44.5 18.5
t-57.5 12.5t-67 4.5zM351 424q63 0 114 -15q13 -4 22 -8q50 -19 50 -44q0 -6 -4 -13t-13 -13q-9 -7 -21 -13l-4 -2l-4 -2q-2 -1 -4 -1q-9 -4 -22 -8q-50 -15 -114 -15q-53 0 -97 10.5t-67 25.5t-23 31q0 27 59 48q55 18 128 19zM164 317q25 -22 74.5 -35t112.5 -13t114 14
q11 2 22 6q7 3 13 5.5t11.5 5.5t10.5 6q9 5 15 11v-17v-47q0 -2 -0.5 -3.5t-1 -3.5t-1.5 -4t-2.5 -4t-3.5 -4l-3 -3q-2 -2 -4.5 -4t-5 -3.5t-5.5 -3.5t-6 -3q-8 -5 -18 -8.5t-21 -6.5q-50 -15 -114 -15q-40 0 -75.5 6t-59.5 15.5t-38 21.5t-14 23v64zM164 213
q25 -22 74.5 -35t112.5 -13q31 0 60.5 3.5t53.5 10.5q11 3 22 7l15 6q11 5 23 12q8 5 12 9v-15v-23v-46q0 -6 -4 -12.5t-11.5 -12.5t-17.5 -12q-5 -2 -10.5 -4.5t-11.5 -4.5q-55 -21 -132 -21q-39 0 -75 6t-59.5 15.5t-37.5 21.5t-14 24v84zM537 4q0 -25 -54 -45.5
t-132 -20.5q-40 0 -75.5 6t-59.5 15.5t-38 21.5t-14 23v84q25 -22 74.5 -35t112.5 -13q91 0 151 27q12 6 23 13q8 4 12 8v-14v-23v-47zM860 118q0 -25 -53.5 -45.5t-132.5 -20.5q-64 0 -115 15v101q51 -14 115 -14q41 0 77.5 6t64.5 17t44 26v-85zM860 243q0 -12 -14 -24
t-37.5 -21.5t-59.5 -15.5t-75 -6q-64 0 -115 15v102q51 -14 115 -14q41 0 77.5 6t64.5 16.5t44 25.5v-84zM860 367q0 -25 -53.5 -45.5t-132.5 -20.5q-64 0 -115 15v41q0 14 -9 26.5t-25 23t-38 18.5v27q17 -15 44.5 -25.5t64 -16.5t78.5 -6q31 0 59.5 3t52.5 9.5t43 15.5
t31 20v-85zM860 492q0 -25 -53.5 -46t-132.5 -21q-53 0 -97 10.5t-67 25.5t-23 31v63q17 -14 44.5 -25t64 -17t78.5 -6q31 0 59.5 3.5t52.5 10t43 15t31 19.5v-63zM674 529q-79 0 -133 21t-54 46t54 45.5t133 20.5t132.5 -20.5t53.5 -45.5t-53.5 -46t-132.5 -21z" />
    <glyph glyph-name="uniE66A" unicode="&#xe66a;" 
d="M367 146l194 55l-139 138zM885 524l-138 138l-306 -304l139 -137zM845 13q0 -35 -25.5 -60.5t-61.5 -25.5h-520q-36 0 -61.5 25.5t-25.5 60.5v521q0 36 25.5 61.5t61.5 25.5h347l86 86h-462q-60 0 -102.5 -42t-42.5 -102v-578q0 -60 42.5 -102.5t102.5 -42.5h578
q60 0 102.5 42.5t42.5 102.5v462l-87 -87v-347zM950 640l-87 86q-11 10 -26.5 9.5t-27.5 -11.5l-41 -41l138 -138l42 41q11 12 11.5 27.5t-9.5 26.5z" />
    <glyph glyph-name="uniE66B" unicode="&#xe66b;" 
d="M255.5 364q-17.5 0 -32 -8.5t-23 -23.5t-8.5 -32t8.5 -32t23 -23.5t32 -8.5t32.5 8.5t23.5 23.5t8.5 32t-8.5 32t-23.5 23.5t-32.5 8.5zM512.5 364q-17.5 0 -32.5 -8.5t-23.5 -23.5t-8.5 -32q0 -26 19 -45t45.5 -19t45.5 19t19 45q0 17 -9 32t-23.5 23.5t-32 8.5z
M769 364q-18 0 -32.5 -8.5t-23 -23.5t-8.5 -32t8.5 -32t23 -23.5t32.5 -8.5q26 0 45 19t19 45q0 13 -5 25t-13.5 20.5t-20.5 13.5t-25 5z" />
    <glyph glyph-name="uniE66C" unicode="&#xe66c;" 
d="M786 809h-535q-7 0 -14 -2.5t-12.5 -6.5t-10 -9.5t-6.5 -12.5t-2 -15v-55v-22v-715v-51v-83q0 -19 13 -32.5t32 -13.5h78h168h44h167h78q19 0 32.5 13.5t13.5 32.5v107v27v715v45v32q0 13 -6 23.5t-16.5 16.5t-23.5 6zM580 754q2 2 4 3l6 2q2 1 5 1t5 -1l6 -2q2 -1 4 -3
q3 -4 4.5 -7.5t1.5 -8t-1.5 -8t-4.5 -6.5q-6 -7 -15 -7t-15 6q-6 7 -6 16q0 8 6 15zM457 760h59q8 0 14.5 -6.5t6.5 -15t-6.5 -15t-14.5 -6.5h-59q-6 0 -11 3t-8 8t-3 10q0 17 17 21q3 1 5 1zM519 -166q-14 0 -25 6.5t-17.5 18t-6.5 24.5q0 21 14 35.5t34.5 14.5t35 -14.5
t14.5 -35t-14.5 -35t-34.5 -14.5zM787 -29h-536v698h536v-698z" />
    <glyph glyph-name="uniE66D" unicode="&#xe66d;" 
d="M894 632h-764q-13 0 -25.5 -5.5t-21.5 -14.5t-14 -21t-5 -26v-515q0 -27 19.5 -46.5t46.5 -19.5h764q28 0 47.5 19.5t19.5 46.5v515q0 28 -19.5 47.5t-47.5 19.5zM919 -1l-291 290q-18 -14 -33 -25t-30 -19.5t-27 -13.5q-11 -5 -30 -5t-29 5q-9 3 -19 8.5t-20.5 12.5
t-21.5 15.5t-23 18.5l-286 -283l-18 19l284 281q-123 107 -278 297l-2 2l19 15q10 -12 27 -32.5t66 -75t92.5 -99t94.5 -89t84 -61.5q10 -6 30 -6t31 6q55 28 150 118t162.5 163.5t67.5 75.5l15 -15q-18 -20 -47 -54t-105 -113.5t-134 -128.5l289 -289z" />
    <glyph glyph-name="uniE66E" unicode="&#xe66e;" 
d="M426 13q-73 0 -139.5 28.5t-115 76.5t-77 114.5t-28.5 139.5q0 98 48.5 180.5t131 130.5t180 48t180.5 -48t131 -130.5t48 -180.5q0 -144 -100 -248q-98 -103 -240 -111h-19zM426 674q-50 0 -96 -15.5t-83 -43.5t-65 -65t-43 -83t-15 -95q0 -125 88.5 -213.5t213 -88.5
t213 88.5t88.5 213.5t-88.5 213.5t-212.5 88.5zM917 -131l-202 200l41 41l202 -200z" />
    <glyph glyph-name="uniE66F" unicode="&#xe66f;" 
d="M511 748q-98 0 -185 -40t-147.5 -107t-91.5 -159.5t-20 -191.5q17 -154 127.5 -264.5t264.5 -127.5q99 -11 191.5 20t159.5 91.5t107 147.5t40 184q0 91 -35 174t-95 142.5t-143 95t-173 35.5v0zM511 -115q-92 0 -175 38.5t-139.5 103t-84 153t-14.5 182.5
q19 137 117 235t235 117q94 13 182.5 -14.5t153 -84t103.5 -139.5t39 -175q0 -113 -56 -209t-152 -151.5t-209 -55.5v0zM682 493l-171 -171l-172 171l-1 1q-10 6 -18 -2.5t-1 -18.5l171 -172l-171 -171q-5 -7 -2.5 -13.5t8.5 -8.5t13 1l1 1l172 171l171 -171q10 -6 18 2
t3 17l-1 1l-171 171l171 172h1q3 5 2 10.5t-4.5 8.5t-8.5 4t-10 -3v0zM682 493z" />
    <glyph glyph-name="uniE670" unicode="&#xe670;" 
d="M514 -193h-6q-16 11 -31.5 23t-30.5 25.5t-27.5 25.5t-28.5 27q-49 49 -103 117q-119 146 -153 287q-24 98 0 186t76 153q52 63 127.5 102t171.5 39q186 0 300 -139q54 -65 78.5 -152.5t1.5 -186.5q-31 -134 -151 -288q-37 -47 -105 -115q-15 -16 -21.5 -22t-22 -21
t-25.5 -23.5t-24 -19t-26 -18.5zM707 62q108 140 137 261q21 88 -1.5 168t-70.5 136q-31 36 -70 63t-94 43.5t-116 12.5q-33 -2 -65 -9.5t-59 -20t-51.5 -29t-44 -36t-36.5 -41.5q-21 -28 -36.5 -62t-24 -72.5t-7 -82.5t13.5 -88q31 -112 138 -248q89 -113 192 -197
q123 108 195 202zM500 561q66 5 115.5 -37t55.5 -105q1 -10 0.5 -21t-2.5 -20t-6.5 -15t-11.5 -7q-9 -2 -15 0t-8 8t-2.5 11t0 15.5t0.5 14.5q-1 50 -38 83.5t-92 27.5q-43 -4 -71.5 -37.5t-27.5 -78.5q1 -47 32 -78t75 -34q6 0 16 0.5t15.5 0.5t11 -1.5t8.5 -6t3 -12.5
q1 -13 -12 -20t-31 -6.5t-35.5 3.5t-28.5 8q-21 8 -39.5 22.5t-33 35t-22 48t-5.5 58.5q4 48 34 84.5t72 51.5q7 2 14 3.5t13.5 2.5t15.5 1z" />
    <glyph glyph-name="uniE671" unicode="&#xe671;" 
d="M593 -83q-12 21 -31 56t-59.5 109.5t-67.5 123.5t-26 49q0 -1 -77 45l-154 92l-77 47l770 295q25 10 30 13q16 6 26 -5t5 -26q-4 -7 -88.5 -207t-167.5 -396zM839 654l-369 -368q27 -61 123 -246zM470 286l369 368l-615 -215z" />
    <glyph glyph-name="uniE672" unicode="&#xe672;" 
d="M511 748q91 0 174 -35.5t143 -96t95.5 -143.5t35.5 -174q0 -185 -131.5 -316.5t-316.5 -131.5q-92 0 -174.5 36t-142.5 96t-95.5 142.5t-36 173.5t35.5 174t96 143.5t143 96t174 35.5zM917 300q0 82 -32 157t-86.5 129.5t-129.5 86.5t-158 32q-82 1 -157.5 -31.5
t-130 -86.5t-86.5 -129.5t-32 -157.5q0 -66 20.5 -128t58 -112t87.5 -87.5t111.5 -58t128.5 -20.5q109 0 203 54t148.5 148t54.5 204zM536 155h-57v4v4v5v4v4v4v4v4q2 37 18 64q13 20 34 40l7 8q5 4 8.5 7t8 7t8.5 7.5t8 7.5l8 8q7 7 12.5 15t8.5 16q8 23 3.5 42.5
t-19.5 38.5q-23 28 -60.5 32.5t-61.5 -11.5q-29 -17 -41 -55q-1 -1 -9 -32q-6 1 -18.5 2.5t-22.5 2.5l-20 2q0 2 1 4v4q1 2 1 4t1 3q2 14 6 26.5t10.5 25t15.5 22.5q31 38 82 48q55 11 103 -5q68 -22 89 -84q21 -63 -20 -116q-5 -7 -11 -13t-12 -12.5t-11.5 -11.5t-13 -12
t-11.5 -11q-18 -18 -26 -27q-15 -18 -17 -49q0 -2 -2 -31zM475 34v68h68v-68h-68z" />
    <glyph glyph-name="uniE673" unicode="&#xe673;" 
d="M807 -197h-598q-64 9 -78 74v816q5 25 21 44t39 26q14 4 33 5t46 -0.5t37 -1.5h259q6 0 14.5 0.5t14.5 0.5h13q7 0 11 -1q2 -1 5 -3.5t7 -6.5t7 -7.5t7.5 -8.5t6.5 -7q20 -22 61.5 -67.5t72.5 -79t60 -64.5q4 -3 12 -11t12.5 -13.5t7.5 -11.5q3 -4 4.5 -10.5t2 -13
t0.5 -16.5v-16v-18v-17v-380q0 -11 1.5 -46.5t1 -61t-5.5 -42.5q-3 -10 -7.5 -19t-11 -16t-15 -12t-19 -9t-22.5 -6zM306 725q-11 0 -30.5 1t-35.5 1t-29 -2q-12 -2 -20 -8.5t-12 -15t-5.5 -23t-1.5 -25t1 -29t1 -28.5v-625q0 -8 -1.5 -33.5t-0.5 -42.5t4 -26q3 -6 7 -10.5
t10.5 -7t11.5 -4t15 -2t16 -0.5h18h19h469h13q8 0 14.5 -0.5t13.5 -0.5t13 0.5t11.5 1.5t9.5 2q7 3 11.5 6.5t7.5 9.5t4.5 11t2 14t0.5 14.5t-0.5 17t-0.5 17.5v514q-26 3 -69.5 0.5t-69 -3.5t-58.5 8q-35 13 -48 49q-3 10 -4.5 24.5t-1.5 26.5t0.5 32.5t0.5 30.5v105h-286z
M635 688l-2 -2q2 -24 0 -80t0 -73q3 -23 22 -32.5t46 -8t57.5 2.5t56.5 -1q-9 11 -19 21.5t-19.5 21.5t-19.5 21.5t-20.5 22t-20 21.5t-21 22t-20.5 21t-20.5 21.5t-19.5 21.5zM280 452h208v-41h-210q1 7 0.5 14t-0.5 14.5t2 12.5zM280 326h208v-41h-210q1 8 0.5 14.5
t-0.5 14t2 12.5zM280 202h458v-43h-460v39q1 3 2 4zM280 76h458v-42h-460v38q1 3 2 4z" />
    <glyph glyph-name="uniE674" unicode="&#xe674;" 
d="M183 753h19q7 -2 14 -5t12 -5.5t12.5 -7.5t11.5 -7.5t11.5 -9.5t10.5 -9t11.5 -11t10 -10t10.5 -11t10 -10q9 -11 15 -17t15.5 -17.5t14.5 -20t11.5 -21t9 -23t2.5 -24t-4 -26.5q-6 -23 -32.5 -48.5t-33.5 -40.5q-12 -26 -14 -55t4.5 -54.5t19 -51t26 -44.5t29.5 -36
q40 -45 93 -74q27 -16 58.5 -24.5t67 -7.5t63.5 16q12 7 27 20.5t25.5 23.5t29.5 17t42 4q7 -1 14 -3t13.5 -4.5t13.5 -6t12 -6.5t11.5 -8t11 -8.5t11 -9.5t10.5 -9l10 -9q7 -6 9 -9q24 -21 35.5 -32.5t26 -32.5t20.5 -42v-17q-11 -38 -39.5 -60.5t-73.5 -45.5
q-41 -20 -84.5 -28.5t-96.5 -4.5q-174 14 -326 110q-293 186 -323 550v30q1 32 11 64.5t28 67.5q11 20 21 35.5t22.5 29.5t28 24t32.5 15zM187 706q-29 -13 -52.5 -52t-36.5 -79q-10 -35 -11 -76.5t7 -82t19 -75t25 -67.5q27 -64 62 -113.5t86 -100.5q93 -93 219 -143
q24 -10 51 -18.5t60.5 -15.5t65.5 -10t66 -0.5t62 11.5q31 10 73 36q53 33 53 55q0 3 -1 6.5t-2.5 6.5t-3.5 6.5t-5 5.5l-5 6q-3 3 -5 5.5t-5 5t-4 4.5q-53 55 -82 75q-34 24 -59 21q-13 -2 -37 -25q-21 -20 -35 -29q-41 -25 -91 -28t-96 14q-79 27 -141 86.5t-92 135.5
q-21 50 -18.5 103t27.5 93q5 8 19.5 21t24.5 26t11 28q1 10 -3 21.5t-8 19t-15 20.5t-14 16.5t-17 17.5q-2 2 -18.5 19.5t-22.5 23t-19 14.5t-25 12h-3h-2h-2z" />
    <glyph glyph-name="uniE675" unicode="&#xe675;" 
d="M668 416l-280 325l-2 3q-2 1 -4 1q-2 1 -4 1l-2 2h-4q-5 0 -9.5 -2.5t-7.5 -7t-3 -9.5v-857q0 -6 3 -10t7.5 -6.5t9.5 -2.5q8 0 14 5.5t6 13.5v805l245 -285q6 -6 14 -6.5t14 4.5t7 12.5t-4 13.5z" />
    <glyph glyph-name="uniE676" unicode="&#xe676;" 
d="M665 211q-6 5 -14 4t-13 -7l-248 -286v807q0 8 -5.5 13.5t-13 5.5t-13 -5.5t-5.5 -13.5v-857q0 -5 2.5 -9.5t7 -7t9.5 -2.5q10 0 15 9l280 323q5 5 4.5 13t-6.5 13z" />
    <glyph glyph-name="uniE677" unicode="&#xe677;" horiz-adv-x="1138" 
d="M481 364h265q6 0 10 2.5t6.5 7t2.5 9.5q0 8 -5.5 13.5t-13.5 5.5h-265q-5 0 -9.5 -2.5t-7 -7t-2.5 -9.5q0 -19 19 -19zM1050 610h-266v133q0 15 -7.5 28t-20.5 20.5t-28 7.5h-607q-23 0 -39.5 -16.5t-16.5 -39.5v-720q0 -24 16.5 -40.5t39.5 -16.5h247v-114
q0 -30 8 -52.5t30 -22.5h644q23 0 30 7t7 30v758q0 12 -1 19t-5.5 11.5t-11.5 6t-19 1.5zM368 572v-568h-228q-15 0 -26.5 11t-11.5 27v682q0 15 11.5 26.5t26.5 11.5h569q10 0 18.5 -5.5t13.5 -14t5 -18.5v-114h-340q-7 0 -11.5 -0.5t-8.5 -1t-6.5 -2t-4.5 -3.5t-3.5 -5
t-2.5 -7t-1 -9v-10zM1050 -148q0 -10 -5.5 -18.5t-14 -14t-18.5 -5.5h-569q-5 0 -10 1.5t-9 4t-7.5 6t-6 7.5t-3.5 9t-1 10v682q-3 17 9.5 27.5t27.5 10.5h569q10 0 18.5 -5t14 -13.5t5.5 -19.5v-682zM974 250h-493q-8 0 -13.5 -5.5t-5.5 -13.5t5.5 -13.5t13.5 -5.5h493
q5 0 9.5 2.5t7 7t2.5 9.5q0 8 -5.5 13.5t-13.5 5.5zM841 80h-360q-8 0 -13.5 -5.5t-5.5 -13.5q0 -5 2.5 -9.5t7 -7t9.5 -2.5h360q8 0 13.5 5.5t5.5 13.5t-5.5 13.5t-13.5 5.5zM481 364h265q6 0 10 2.5t6.5 7t2.5 9.5q0 8 -5.5 13.5t-13.5 5.5h-265q-5 0 -9.5 -2.5t-7 -7
t-2.5 -9.5q0 -19 19 -19zM1050 610h-266v133q0 15 -7.5 28t-20.5 20.5t-28 7.5h-607q-23 0 -39.5 -16.5t-16.5 -39.5v-720q0 -24 16.5 -40.5t39.5 -16.5h247v-114q0 -30 8 -52.5t30 -22.5h644q23 0 30 7t7 30v758q0 12 -1 19t-5.5 11.5t-11.5 6t-19 1.5zM368 572v-568h-228
q-15 0 -26.5 11t-11.5 27v682q0 15 11.5 26.5t26.5 11.5h569q10 0 18.5 -5.5t13.5 -14t5 -18.5v-114h-340q-7 0 -11.5 -0.5t-8.5 -1t-6.5 -2t-4.5 -3.5t-3.5 -5t-2.5 -7t-1 -9v-10zM1050 -148q0 -10 -5.5 -18.5t-14 -14t-18.5 -5.5h-569q-5 0 -10 1.5t-9 4t-7.5 6t-6 7.5
t-3.5 9t-1 10v682q-3 17 9.5 27.5t27.5 10.5h569q10 0 18.5 -5t14 -13.5t5.5 -19.5v-682zM974 250h-493q-8 0 -13.5 -5.5t-5.5 -13.5t5.5 -13.5t13.5 -5.5h493q5 0 9.5 2.5t7 7t2.5 9.5q0 8 -5.5 13.5t-13.5 5.5zM841 80h-360q-8 0 -13.5 -5.5t-5.5 -13.5q0 -5 2.5 -9.5
t7 -7t9.5 -2.5h360q8 0 13.5 5.5t5.5 13.5t-5.5 13.5t-13.5 5.5z" />
    <glyph glyph-name="uniE678" unicode="&#xe678;" 
d="M480 290q50 26 79.5 74t29.5 105q0 83 -59 142t-142 59q-41 0 -78 -16t-64 -43t-43 -64t-16 -78q0 -40 15.5 -77t42.5 -64t62 -43q-102 -30 -169.5 -114t-73.5 -192v-5v-30q0 -7 4.5 -11.5t10.5 -4.5t10.5 4.5t4.5 11.5v15q0 128 91 218.5t219 90.5t218.5 -90.5
t90.5 -218.5v-15q0 -7 4.5 -11.5t10.5 -4.5q4 0 8 2t6 5.5t2 8.5v30q0 3 -1 5q-4 75 -39 140.5t-93.5 110t-130.5 60.5zM388.5 299q-70.5 0 -120.5 50t-50 120q0 46 23 85.5t62 62t85 22.5q71 0 120.5 -50t49.5 -120t-49.5 -120t-120 -50zM959 -21q-6 113 -79.5 199.5
t-182.5 111.5q49 26 78.5 74t29.5 105q0 72 -45 127t-114 70q-5 4 -11 4h-30q-7 0 -11.5 -4.5t-4.5 -11t4.5 -11t11.5 -4.5h15v-1q14 -1 28 -4.5t26.5 -9.5t24 -13.5t21.5 -17t18.5 -20t15 -23t11.5 -25.5t7.5 -27t2.5 -29q0 -26 -8 -50.5t-22 -45t-33 -36.5t-42.5 -25.5
t-49.5 -11.5v-1h-15q-4 0 -6.5 -1t-4.5 -3.5t-3.5 -5t-1.5 -5.5q0 -7 4.5 -11.5t11.5 -4.5h15q128 0 218.5 -90.5t90.5 -218.5v-15q0 -4 1.5 -6.5t3.5 -4.5t4.5 -3.5t6.5 -1.5q6 0 10.5 4.5t4.5 11.5v30z" />
    <glyph glyph-name="uniE679" unicode="&#xe679;" 
d="M317 417l149 -154l242 248q4 4 8.5 6.5t9 4t9.5 2.5t10 0t10 -2.5t9.5 -4t7.5 -6.5q5 -5 7.5 -10.5t4 -11t1.5 -11.5t-1.5 -11.5t-4.5 -11t-8 -9.5l-265 -273q-4 -8 -6 -10q-7 -8 -16 -11t-19 -2q-19 0 -32 14q-2 2 -5 8q-1 1 -1 2l-174 177q-14 14 -14 33t14 33
q6 6 14.5 9.5t17 3.5t17 -3.5t15.5 -9.5zM512 -128q-157 0 -287 94q-9 3 -16 9.5t-11.5 15.5t-4.5 19v4q0 8 2.5 15t6.5 13t9.5 10t12.5 6.5t14 2.5q19 0 33 -15q108 -81 240 -81q111 0 205 56t149 153t55 211q0 85 -32.5 162.5t-87 134t-130.5 89.5t-159 33t-158.5 -33
t-130 -89.5t-87 -134t-32.5 -162.5q0 -47 10 -92t29 -87l-7 -8q13 -5 20.5 -16.5t7.5 -26.5l1 -4q0 -19 -13.5 -32.5t-32.5 -13.5q-10 0 -18.5 4t-14.5 11.5t-9 17.5l-1 -1q-29 56 -45 118.5t-16 128.5q0 104 39.5 199t106 163.5t159 109t193.5 40.5t193.5 -40.5t159 -109
t106 -163.5t39.5 -199t-39.5 -199t-106 -163.5t-159 -109t-193.5 -40.5z" />
    <glyph glyph-name="uniE67A" unicode="&#xe67a;" horiz-adv-x="1042" 
d="M520 291q-13 0 -23.5 6.5t-16.5 17t-6 23.5l-1 283q0 10 3.5 18.5t10 14.5t15.5 10t18 4q20 0 34 -13.5t14 -33.5l-1 -283q0 -20 -13.5 -33.5t-33.5 -13.5zM571 150q0 -20 -15 -35t-36 -15t-36 15t-15 35v2q0 21 15 35.5t36 14.5t36 -14.5t15 -35.5v-2zM521 -128
q-164 0 -300 94q-14 5 -23.5 17t-9.5 27l-1 4q0 10 4 18.5t10 14.5t15 10t19 4q20 0 34 -15q113 -81 251 -81q116 0 214.5 56t155.5 153t57 211t-57 210.5t-155.5 152.5t-214.5 56q-58 0 -113.5 -15t-102 -42t-86 -65.5t-67 -84.5t-43 -100.5t-15.5 -111.5q0 -94 41 -179
l-7 -8q13 -5 21 -16.5t8 -26.5l1 -4q0 -9 -4 -18t-10.5 -15t-15 -9.5t-18.5 -3.5q-15 0 -27.5 9t-16.5 24v-1q-32 56 -48.5 118.5t-16.5 128.5q0 104 41.5 199t111 163.5t166 109t202.5 40.5t202.5 -40.5t166 -109t111 -163.5t41.5 -199q0 -83 -26.5 -161.5t-74.5 -141.5
t-112 -110t-143.5 -73t-164.5 -26z" />
    <glyph glyph-name="uniE67B" unicode="&#xe67b;" horiz-adv-x="1042" 
d="M853 384q0 -20 -13.5 -33.5t-33.5 -13.5h-274q-10 -2 -11 -2q-10 0 -19 4t-15.5 10.5t-9.5 15.5q-4 9 -4 19q0 1 1 2v1v276q0 19 14 32.5t33 13.5q13 0 24 -6t17.5 -17t6.5 -23l-1 -233h238q10 0 18.5 -3.5t15 -10t10 -15t3.5 -17.5zM521 -128q-164 0 -300 94
q-14 5 -23.5 17t-9.5 27l-1 4q0 10 4 18.5t10 14.5t15 10t19 4q20 0 34 -15q113 -81 251 -81q116 0 214.5 56t155.5 153t57 211t-57 210.5t-155.5 152.5t-214.5 56q-58 0 -113.5 -15t-102 -42t-86 -65.5t-67 -84.5t-43 -100.5t-15.5 -111.5q0 -94 41 -179l-7 -8
q29 -11 29 -43l1 -4q0 -9 -4 -18t-10.5 -15t-15 -9.5t-18.5 -3.5q-15 0 -27.5 9t-16.5 24v-1q-32 56 -48.5 118.5t-16.5 128.5q0 104 41.5 199t111 163.5t166 109t202.5 40.5t202.5 -40.5t166 -109t111 -163.5t41.5 -199q0 -83 -26.5 -161.5t-74.5 -141.5t-112 -110
t-143.5 -73t-164.5 -26z" />
    <glyph glyph-name="uniE67C" unicode="&#xe67c;" horiz-adv-x="1071" 
d="M988 13l68 -65q14 -13 14 -31.5t-13.5 -31.5t-33 -13t-32.5 13l-69 65l-66 -63q-14 -13 -33.5 -13t-33 13t-13 31t14.5 31l66 64l-67 64q-14 13 -14 31.5t14 31.5t32.5 12.5t32.5 -13.5l67 -64l66 63q9 9 21 12t24 0t21 -11.5t12 -20t0 -23t-12 -20.5zM677 303
q29 -11 63 -32q14 -4 24 -16q1 -1 4 -2.5t5.5 -3t3.5 -3.5h-3l3 -46h-9q-14 -24 -41 -24v-9q-101 76 -229 80h-3h-3h-4h-2h-4h-4h-5q-103 -3 -189 -53t-136.5 -134t-50.5 -183h-38q-1 0 -3.5 -0.5t-4.5 -0.5h-5l-3 1h-43q0 6 3 41q0 1 -0.5 2t-0.5 2v4q0 4 1 7t2 8
q18 121 95.5 218t193.5 144q-69 45 -108.5 115.5t-39.5 152.5q0 66 26.5 126.5t72 104t108.5 69t133 25.5q92 0 170.5 -43.5t124 -118t45.5 -163.5q0 -82 -40 -152.5t-109 -115.5zM486 803q-101 0 -172 -68t-71 -164q0 -63 32.5 -116.5t88.5 -84.5t122 -31q100 0 171 68
t71 164q0 63 -32.5 116.5t-88 84.5t-121.5 31z" />
    <glyph glyph-name="uniE67D" unicode="&#xe67d;" 
d="M687 135l-116 119q19 21 51 44l137 -139q2 -1 5 -7q76 -82 85 -192h18v-88h-710v88h14q9 110 86 193l4 6l218 220q3 6 6 9q5 4 13 7q12 13 14 15l1 -2l57 58h-1l118 120q25 20 43 43l3 3h-1q25 34 39 73t14 81q0 1 -1 16h-538l-2 -16q0 -84 53 -154l3 -3q17 -22 38 -40
l114 -118l-14 -15q-15 -15 -35 -30l-136 138q-2 2 -4 7q-1 0 -1 1q-85 93 -85 217v13h-20v89h710v-89h-18l1 -6v-7q0 -18 -2 -36t-5.5 -34.5t-9.5 -32.5t-13 -31.5t-15.5 -30t-19 -28t-21.5 -25.5l-1 -2l-3 -5l-200 -203l3 -3q-22 -22 -47 -48l-6 6l-57 -58h1l-119 -120
q-12 -10 -23 -20.5t-20 -22.5l-3 -3q-14 -19 -24.5 -40t-17.5 -44t-9 -48h542q-4 37 -17 70.5t-34 61.5l-3 3q-17 22 -39 40z" />
    <glyph glyph-name="uniE67E" unicode="&#xe67e;" 
d="M511 831q-73 0 -141 -22.5t-123 -63.5t-96.5 -96t-64 -123.5t-22.5 -140.5q0 -91 35.5 -174t95.5 -143t142.5 -95t173.5 -35q73 0 141 22.5t123 63.5t96.5 96t64 123.5t22.5 141.5q0 170 -114 297q-109 123 -271 145q-31 4 -62 4zM477 142q-53 66 -111.5 113.5
t-103.5 63.5l139 84l68 -130l36 75q113 211 246 279q-1 -14 -4.5 -45t-4 -47.5t3 -43t14.5 -50.5q-27 -6 -69 -40.5t-82.5 -80.5t-76 -94t-55.5 -84zM477 142z" />
    <glyph glyph-name="uniE67F" unicode="&#xe67f;" 
d="M512 671v160l-229 -228l229 -229v206q113 0 193.5 -81t80.5 -194t-80.5 -194t-194 -81t-194 81t-80.5 194h-92q0 -99 49.5 -183.5t133.5 -133.5t183.5 -49t183.5 49t133.5 133.5t49.5 183.5t-49.5 183.5t-133.5 133.5t-183 49z" />
    <glyph glyph-name="uniE680" unicode="&#xe680;" 
d="M859 737q-3 6 -11 6h-686q-8 -1 -10 -5l-102 -160l-3 -7v-22q0 -36 20 -58t51 -28v-384q0 -25 17 -50t37 -25l658 1q10 0 22 6t22 15t16.5 21.5t6.5 24.5v380q19 9 32 37.5t13 59.5v22q0 3 -2 6zM211 500q26 -43 71 -43q12 0 20 2t14.5 7t11 12t10.5 19q11 -20 38 -30
t54 -10q23 0 42.5 13t31.5 35q12 -22 31.5 -35t42.5 -13t42.5 13t31.5 35q12 -22 31.5 -35t42.5 -13q18 -1 27.5 0t23.5 8.5t24 22.5q1 0 2 -2t3 -5.5t5 -7.5t7 -8t9 -6q4 -2 8.5 -4t7.5 -3l6 -4l4 -2h1v-367q0 -12 -7 -21t-17 -9h-648q-11 0 -17 5.5t-6 17.5v380
q6 1 10.5 5t9.5 10t9 10q2 2 6.5 4.5t14 8.5t14.5 8zM784 481l1 -320q0 -26 -12.5 -46.5t-31.5 -20.5h-448q-20 0 -42.5 16t-24.5 51v79v132v102l45 -22q-3 -251 0 -291q1 -11 6 -15.5t10.5 -5t5.5 -1.5h425q23 0 23 22v291zM907 551q0 -30 -13 -48t-39 -18q-18 0 -21.5 7
t-3.5 36v13q0 10 -15 20q-4 3 -7 3q-4 0 -9 -4t-9.5 -9.5t-4.5 -9.5q0 -28 -16 -42t-43 -14q-52 0 -52 56q0 2 -1 4t-2.5 4t-3.5 4.5t-4 4.5l-4 2q-2 2 -4 3t-4 1t-5 -1.5t-6 -4t-5.5 -5.5t-4 -6t-1.5 -6q0 -29 -12.5 -42.5t-38.5 -13.5q-18 0 -31 5.5t-21.5 18.5t-8.5 32
q0 6 -8.5 14.5t-13.5 8.5q-4 0 -9 -4t-9.5 -9.5t-4.5 -9.5q0 -31 -8.5 -43.5t-33.5 -12.5q-18 0 -33 5.5t-26 18.5t-11 32q0 4 -4 9.5t-9 9.5t-9 4q-5 0 -13.5 -8.5t-8.5 -14.5q0 -18 -0.5 -26t-3.5 -16.5t-10 -11t-20 -2.5q-56 0 -56 56q0 6 -8.5 14.5t-13.5 8.5
q-3 0 -8.5 -4t-9.5 -9.5t-4 -9.5q0 -20 -5 -32t-15.5 -18t-27.5 -6q-20 0 -36 19t-16 47v17l100 130h648l77 -130v-17z" />
    <glyph glyph-name="uniE681" unicode="&#xe681;" 
d="M955 536l-182 199v-75q126 -124 127 -124q-99 0 -178.5 -21.5t-127.5 -52.5t-82.5 -73.5t-49 -78t-22.5 -74t-8.5 -52t0.5 -21.5h45q0 7 1 18.5t8.5 45t21.5 64t45.5 68t74.5 64t113.5 45t158.5 18.5l-14 -16q-13 -15 -31.5 -37t-37 -43.5t-31.5 -37.5l-13 -15v-75
l182 224v50zM68 710h409v-50h-409v50zM68 710h45v-870h-45v870zM72 -110h811v-50h-811v50zM833 -159v284h49v-284h-49z" />
    <glyph glyph-name="uniE682" unicode="&#xe682;" 
d="M515 751q-97 0 -179 -47.5t-130 -129t-48 -177.5q0 -55 19 -115t46.5 -109.5t66 -100t71 -85.5t67.5 -68.5t49.5 -45.5t24.5 -19q6 -5 13 -5q3 0 6.5 1.5t6.5 3.5q7 6 18.5 16t40 35t56 54.5t61.5 68t62.5 82t53 89.5t38 97.5t13.5 100.5q0 48 -12.5 94t-35.5 84.5
t-56 71.5t-72 56t-85.5 35.5t-94.5 12.5zM515 -102q-27 22 -57 50t-79.5 83t-86 109t-64.5 124t-28 133q0 129 92.5 220.5t222.5 91.5t222 -91.5t92 -220.5q0 -63 -27.5 -133t-64.5 -124t-86.5 -109t-79 -83t-56.5 -50zM514.5 541q-60.5 0 -103.5 -43t-43 -103.5t43 -103.5
t104 -43q12 0 26 2q8 2 13 9t3.5 15.5t-8.5 13.5t-16 4q-5 -1 -9.5 -1.5t-8.5 -0.5q-44 0 -74.5 30.5t-30.5 74t30.5 74t74 30.5t74 -30.5t30.5 -74.5q0 -8 -1 -18q-1 -4 -0.5 -7t2 -6t3.5 -5.5t5 -4t6 -2.5q9 -1 16 4t9 13q1 7 1.5 13.5t0.5 12.5q0 61 -43 104t-103.5 43z
" />
    <glyph glyph-name="uniE683" unicode="&#xe683;" 
d="M481 711q-103 0 -190.5 -50.5t-138 -138t-50.5 -190.5t50.5 -190.5t138 -138t190.5 -50.5t190.5 50.5t138 138t50.5 190.5t-50.5 190.5t-138 138t-190.5 50.5zM481 -9q-93 0 -171.5 45.5t-124 124t-45.5 171.5t45.5 171.5t124 124t171.5 45.5t171.5 -45.5t124 -124
t45.5 -171.5q0 -138 -96 -238q-96 -98 -233 -103h-12zM956 -117l-167 168q-6 -7 -13 -14t-14 -13l167 -167q6 -6 14 -6t13 6q4 3 5.5 8t0 10t-5.5 8z" />
  </font>
</defs>
</svg>
